<svg width="14" height="16" viewBox="0 0 14 16" fill="none" xmlns="http://www.w3.org/2000/svg">
<path fill-rule="evenodd" clip-rule="evenodd" d="M6.99763 0.501968C3.97278 0.501968 1.50291 2.97634 1.50291 6.00068V8.00158C1.50291 9.5395 0.900443 10.8394 0.656955 11.3264C0.167981 12.3064 0.906942 13.4963 2.00089 13.4963H4.54975C4.78174 14.6352 5.79469 15.4992 6.99963 15.4992C8.20456 15.4992 9.21751 14.6352 9.4495 13.4963H11.9984C13.0923 13.4963 13.8263 12.3044 13.3383 11.3264C13.0963 10.8414 12.4973 9.54 12.4973 8.00158V6.00068C12.4973 2.97584 10.0225 0.501968 6.99763 0.501968ZM6.99763 1.49792C9.4775 1.49792 11.5004 3.52031 11.5004 6.00068V8.00158C11.5004 9.79648 12.1814 11.2474 12.4453 11.7764C12.6203 12.1274 12.3898 12.5003 11.9984 12.5003H2.00089C1.60641 12.5003 1.37492 12.1289 1.55091 11.7769C1.8144 11.2484 2.49886 9.79698 2.49886 8.00158V6.00068C2.49886 3.51981 4.51725 1.49792 6.99763 1.49792ZM6.99763 2.49786C5.06773 2.49786 3.49881 4.07028 3.49881 6.00068C3.49881 6.13328 3.55148 6.26045 3.64525 6.35422C3.73901 6.44798 3.86618 6.50066 3.99878 6.50066C4.13138 6.50066 4.25855 6.44798 4.35232 6.35422C4.44608 6.26045 4.49876 6.13328 4.49876 6.00068C4.49643 5.67174 4.55946 5.34561 4.68418 5.04121C4.8089 4.73682 4.99283 4.46022 5.2253 4.22748C5.45776 3.99473 5.73413 3.81047 6.03838 3.68539C6.34262 3.5603 6.66868 3.49688 6.99763 3.49881C7.13036 3.49881 7.25766 3.44608 7.35151 3.35223C7.44537 3.25837 7.4981 3.13107 7.4981 2.99834C7.4981 2.8656 7.44537 2.73831 7.35151 2.64445C7.25766 2.55059 7.13036 2.49786 6.99763 2.49786ZM3.99978 7.4996C3.86718 7.4996 3.74001 7.55228 3.64625 7.64604C3.55248 7.73981 3.49981 7.86698 3.49981 7.99958C3.49981 8.13218 3.55248 8.25935 3.64625 8.35311C3.74001 8.44688 3.86718 8.49955 3.99978 8.49955C4.13238 8.49955 4.25955 8.44688 4.35332 8.35311C4.44708 8.25935 4.49976 8.13218 4.49976 7.99958C4.49976 7.86698 4.44708 7.73981 4.35332 7.64604C4.25955 7.55228 4.13238 7.4996 3.99978 7.4996ZM5.5897 13.4963H8.40955C8.30856 13.7897 8.11833 14.0441 7.86549 14.224C7.61266 14.4038 7.3099 14.5001 6.99963 14.4992C6.68935 14.5001 6.38659 14.4038 6.13376 14.224C5.88093 14.0441 5.69069 13.7897 5.5897 13.4963Z" fill="#1185F7"/>
</svg>
