<svg width="200" height="169" viewBox="0 0 200 169" fill="none" xmlns="http://www.w3.org/2000/svg">
<g clip-path="url(#clip0_14_8111)">
<path d="M182.036 143.938C186.373 143.938 189.889 137.846 189.889 130.331C189.889 122.817 186.373 116.725 182.036 116.725C177.699 116.725 174.184 122.817 174.184 130.331C174.184 137.846 177.699 143.938 182.036 143.938Z" stroke="#FFCD52" stroke-miterlimit="10"/>
<path d="M175.301 136.317C174.184 133.739 175.025 132.159 175.025 130.331C175.025 126.489 176.314 122.14 178.617 119.41C179.234 121.364 179.564 123.398 179.594 125.447C179.582 129.282 177.591 133.587 175.301 136.317Z" fill="#FFCD52"/>
<path d="M169.954 139.082C174.291 139.082 177.806 132.99 177.806 125.475C177.806 117.961 174.291 111.869 169.954 111.869C165.617 111.869 162.101 117.961 162.101 125.475C162.101 132.99 165.617 139.082 169.954 139.082Z" fill="white"/>
<path d="M189.234 130.758C189.234 132.279 189.849 133.492 189.011 135.547C185.4 132.67 182.69 127.838 182.69 122.862C182.738 121.109 182.994 119.367 183.453 117.675C187.06 120.528 189.234 125.783 189.234 130.758Z" fill="#FFCD52"/>
<path d="M191.948 135.686C196.285 135.686 199.801 129.594 199.801 122.08C199.801 114.565 196.285 108.473 191.948 108.473C187.611 108.473 184.095 114.565 184.095 122.08C184.095 129.594 187.611 135.686 191.948 135.686Z" fill="white"/>
<path d="M182.036 140.351L177.304 134.94M182.036 143.938V123.532V143.938ZM182.036 131.524L185.216 127.889L182.036 131.524ZM182.036 135.866L186.621 130.627L182.036 135.866ZM182.036 140.343L186.768 134.928L182.036 140.343ZM182.036 131.536L178.182 127.123L182.036 131.536ZM182.036 135.874L177.304 130.463L182.036 135.874Z" stroke="#FFCD52" stroke-linecap="round" stroke-linejoin="round"/>
<path d="M191.948 135.686C196.285 135.686 199.801 129.594 199.801 122.08C199.801 114.565 196.285 108.473 191.948 108.473C187.611 108.473 184.095 114.565 184.095 122.08C184.095 129.594 187.611 135.686 191.948 135.686Z" stroke="#1185F7" stroke-miterlimit="10"/>
<path d="M191.948 132.099L187.215 126.684M191.948 115.28V143.994V115.28ZM191.948 123.273L195.794 118.872L191.948 123.273ZM191.948 127.614L196.68 122.203L191.948 127.614ZM191.948 132.087L196.68 126.676L191.948 132.087ZM191.948 123.281L188.089 118.872L191.948 123.281ZM191.948 127.622L187.215 122.211L191.948 127.622Z" stroke="#1185F7" stroke-linecap="round" stroke-linejoin="round"/>
<path d="M169.954 139.082C174.291 139.082 177.806 132.99 177.806 125.475C177.806 117.961 174.291 111.869 169.954 111.869C165.617 111.869 162.101 117.961 162.101 125.475C162.101 132.99 165.617 139.082 169.954 139.082Z" stroke="#FF5061" stroke-linecap="round" stroke-linejoin="round"/>
<path d="M169.954 135.491L165.222 130.08M169.954 118.676V143.994V118.676ZM169.954 126.668L173.805 122.267L169.954 126.668ZM169.954 131.01L174.686 125.599L169.954 131.01ZM169.954 135.483L174.686 130.072L169.954 135.483ZM169.954 126.676L166.1 122.267L169.954 126.676ZM169.954 131.018L165.222 125.607L169.954 131.018Z" stroke="#FF5061" stroke-linecap="round" stroke-linejoin="round"/>
<path d="M10.0791 143.994H196.68" stroke="#545454" stroke-linecap="round" stroke-linejoin="round"/>
<path d="M60.2599 88.6567L40.2104 68.6073C38.1847 66.5815 34.9003 66.5815 32.8745 68.6073L12.5316 88.9502C10.5059 90.9759 10.5059 94.2603 12.5316 96.286L32.5811 116.336C34.6069 118.361 37.8912 118.361 39.917 116.336L60.2599 95.9926C62.2856 93.9669 62.2856 90.6825 60.2599 88.6567Z" fill="#C1E3F7"/>
<path d="M64.9828 88.8034L40.0634 63.884C38.0377 61.8583 34.7533 61.8583 32.7276 63.884L7.80821 88.8034C5.78247 90.8291 5.78246 94.1135 7.80821 96.1392L32.7276 121.059C34.7533 123.084 38.0377 123.084 40.0634 121.059L64.9828 96.1392C67.0085 94.1135 67.0085 90.8291 64.9828 88.8034Z" stroke="#1185F7" stroke-linecap="round" stroke-linejoin="round"/>
<path d="M12.5053 125.012C12.7194 126.053 12.8805 127.104 12.9881 128.161C13.1078 129.21 13.1797 130.264 13.2435 131.317C13.3073 132.37 13.3353 133.428 13.3273 134.489C13.3347 135.555 13.2881 136.62 13.1876 137.681C12.9736 136.641 12.8124 135.59 12.7048 134.533C12.5851 133.484 12.5133 132.426 12.4495 131.373C12.3856 130.319 12.3617 129.262 12.3657 128.205C12.3696 127.147 12.3976 126.09 12.5053 125.012Z" fill="#439916"/>
<path d="M19.1766 130.998C18.136 131.212 17.0853 131.373 16.0284 131.481C14.975 131.6 13.9216 131.672 12.8682 131.74C11.8148 131.808 10.7574 131.828 9.69996 131.82C8.6342 131.829 7.56867 131.783 6.50781 131.68C7.54811 131.465 8.59898 131.306 9.65607 131.201C10.7055 131.082 11.7589 131.006 12.8123 130.942C13.8657 130.878 14.9231 130.854 15.9805 130.862C17.0475 130.853 18.1143 130.898 19.1766 130.998Z" fill="#439916"/>
<path d="M41.3824 110.612C41.5753 111.305 41.7167 112.012 41.8053 112.727C41.9051 113.433 41.9729 114.143 42.0088 114.854C42.0447 115.564 42.0567 116.274 42.0368 116.988C42.0249 117.708 41.9596 118.425 41.8412 119.135C41.6489 118.441 41.5062 117.734 41.4143 117.02C41.3185 116.314 41.2507 115.608 41.2148 114.897C41.1789 114.187 41.1669 113.473 41.1869 112.759C41.1989 112.039 41.2642 111.322 41.3824 110.612Z" fill="#0850EC"/>
<path d="M45.8872 114.646C45.1951 114.839 44.4896 114.981 43.7764 115.069C43.0661 115.165 42.3599 115.237 41.6496 115.272C40.9394 115.308 40.2291 115.32 39.5149 115.3C38.7954 115.289 38.0779 115.223 37.3682 115.105C38.0597 114.908 38.7654 114.766 39.479 114.678C40.1892 114.582 40.8955 114.51 41.6057 114.474C42.316 114.439 43.0262 114.431 43.7405 114.451C44.4599 114.462 45.1775 114.528 45.8872 114.646Z" fill="#0850EC"/>
<path d="M69.9278 0C70.1472 1.04543 70.2909 2.09485 70.4066 3.14826C70.5223 4.20166 70.6021 5.25108 70.6659 6.30848C70.7298 7.36588 70.7537 8.41929 70.7497 9.47669C70.7559 10.5425 70.7079 11.6079 70.6061 12.6688C70.3866 11.6234 70.243 10.574 70.1273 9.52058C70.0116 8.46717 69.9318 7.41775 69.8679 6.36035C69.8041 5.30295 69.7801 4.24955 69.7881 3.19215C69.7807 2.12642 69.8273 1.061 69.9278 0V0Z" fill="#439916"/>
<path d="M76.6117 5.98525C75.5663 6.20471 74.5169 6.34836 73.4635 6.46408C72.41 6.57979 71.3606 6.6596 70.3032 6.72344C69.2458 6.78728 68.1924 6.81122 67.135 6.80723C66.0692 6.81335 65.0038 6.7654 63.9429 6.66359C64.9883 6.44413 66.0377 6.30048 67.0911 6.18476C68.1445 6.06905 69.194 5.98924 70.2514 5.9254C71.3088 5.86156 72.3622 5.83762 73.4196 5.8456C74.4853 5.83612 75.5508 5.88273 76.6117 5.98525ZM78.2796 7.7569C78.4726 8.45043 78.6139 9.15729 78.7026 9.87169C78.7983 10.578 78.8701 11.2882 78.9061 11.9985C78.942 12.7087 78.9539 13.419 78.934 14.1332C78.922 14.8526 78.8566 15.5702 78.7385 16.2799C78.5442 15.5865 78.4015 14.8796 78.3115 14.1651C78.2158 13.4589 78.1439 12.7486 78.108 12.0384C78.0721 11.3281 78.0641 10.6179 78.0841 9.90361C78.0959 9.18418 78.1613 8.46663 78.2796 7.7569Z" fill="#439916"/>
<path d="M82.7686 11.7871C82.0748 11.9798 81.3681 12.1225 80.6538 12.214C79.9476 12.3098 79.2413 12.3776 78.5311 12.4175C77.8208 12.4574 77.1066 12.4614 76.3963 12.4454C75.6755 12.4321 74.9566 12.3654 74.2456 12.2459C74.9391 12.053 75.646 11.9116 76.3604 11.823C77.0667 11.7272 77.7769 11.6554 78.4872 11.6195C79.1974 11.5836 79.9077 11.5756 80.6219 11.5955C81.3411 11.608 82.0585 11.672 82.7686 11.7871ZM4.03033 119.39C4.22306 120.083 4.36575 120.788 4.45728 121.501C4.55304 122.211 4.62087 122.918 4.66077 123.628C4.70068 124.338 4.70467 125.048 4.68871 125.763C4.67354 126.482 4.60686 127.2 4.4892 127.909C4.29584 127.217 4.15446 126.512 4.06624 125.799C3.97047 125.088 3.89865 124.382 3.86274 123.672C3.82683 122.962 3.81486 122.247 3.83481 121.537C3.85061 120.818 3.91594 120.101 4.03033 119.39Z" fill="#439916"/>
<path d="M8.52303 123.42C7.8295 123.613 7.12264 123.755 6.40824 123.843C5.70197 123.943 4.99172 124.011 4.28147 124.047C3.57121 124.083 2.86096 124.095 2.14672 124.075C1.42729 124.063 0.709733 123.998 0 123.879C0.6939 123.687 1.40062 123.544 2.1148 123.452C2.82106 123.357 3.52732 123.289 4.23758 123.253C4.94783 123.217 5.66207 123.205 6.37631 123.225C7.09573 123.237 7.81325 123.302 8.52303 123.42ZM178.98 65.3033C179.194 66.3439 179.355 67.3947 179.463 68.4516C179.582 69.501 179.654 70.5544 179.722 71.6118C179.79 72.6692 179.81 73.7226 179.802 74.78C179.809 75.8458 179.763 76.9112 179.662 77.9722C179.447 76.9319 179.288 75.881 179.183 74.8239C179.06 73.7745 178.988 72.7211 178.924 71.6637C178.86 70.6063 178.836 69.5529 178.84 68.4955C178.844 67.4381 178.872 66.3687 178.98 65.3033Z" fill="#439916"/>
<path d="M185.651 71.2927C184.606 71.5121 183.552 71.6558 182.503 71.7715C181.454 71.8872 180.396 71.967 179.343 72.0308C178.289 72.0947 177.232 72.1186 176.175 72.1146C175.109 72.1209 174.043 72.0729 172.982 71.971C174.028 71.7515 175.077 71.6079 176.131 71.4922C177.184 71.3764 178.234 71.2966 179.287 71.2328C180.34 71.169 181.398 71.145 182.459 71.153C183.525 71.1435 184.59 71.1901 185.651 71.2927ZM174.582 57.9894C174.775 58.6818 174.918 59.3873 175.009 60.1002C175.105 60.8064 175.173 61.5167 175.213 62.227C175.253 62.9372 175.257 63.6475 175.237 64.3617C175.225 65.0811 175.16 65.7987 175.041 66.5084C174.848 65.8162 174.707 65.1107 174.618 64.3976C174.523 63.6874 174.451 62.9811 174.415 62.2708C174.379 61.5606 174.367 60.8464 174.387 60.1361C174.403 59.4169 174.468 58.6996 174.582 57.9894Z" fill="#439916"/>
<path d="M179.075 62.0195C178.382 62.2124 177.675 62.3538 176.96 62.4424C176.254 62.5382 175.544 62.61 174.834 62.6459C174.123 62.6818 173.413 62.6938 172.699 62.6739C171.98 62.662 171.262 62.5967 170.552 62.4783C171.246 62.2841 171.953 62.1414 172.667 62.0514C173.373 61.9556 174.08 61.8878 174.79 61.8519C175.5 61.816 176.214 61.804 176.929 61.8239C177.648 61.8361 178.366 61.9015 179.075 62.0195Z" fill="#439916"/>
<path d="M98.0351 81.0686L41.6099 102.38L88.3948 125.643L149.492 102.38L98.0351 81.0686Z" fill="#D86C1D"/>
<path d="M98.0348 81.0686L88.3945 125.643L149.492 102.38L98.0348 81.0686Z" fill="#F46534"/>
<path d="M98.0349 81.1164L149.492 102.38L166.143 102.899L115.268 80.0351L98.0349 81.1164ZM26.6704 95.3374L82.4731 75.4943L98.0349 81.0686L41.6097 102.38L26.6704 95.3374Z" fill="#FFCD52"/>
<path d="M111.673 79.3647C111.491 81.4212 111.001 83.4388 110.221 85.35C109.263 87.6643 108.306 88.7098 107.859 90.9802C107.534 92.4145 107.534 93.9032 107.859 95.3375C108.182 96.6662 108.784 97.7834 110.767 100.241C113.042 103.066 113.816 103.541 115.308 105.329C116.745 107.057 117.798 108.984 119.845 112.775C122.511 117.702 123.835 120.168 124.023 121.13C125.368 128.26 116.186 135.61 114.762 136.748C103.609 145.674 87.4169 145.969 75.5301 141.288C70.5866 139.46 66.1177 136.543 62.4543 132.753C55.1164 125.044 53.64 116.047 53.0095 111.865C52.5227 108.609 50.807 96.0198 57.7339 84.2607C64.7686 72.3181 73.7545 73.0523 76.803 62.2828C79.1253 54.0829 75.9531 46.4457 77.7088 45.923C79.5682 45.3843 81.4795 54.3942 90.0783 58.9989C92.7518 60.4313 93.49 60.0523 97.2966 62.1072C102.408 64.8684 103.445 66.8316 106.969 69.1698C115.109 74.5686 122.531 72.6772 122.93 74.9795C123.165 76.2484 121.234 78.5029 110.58 82.7883L111.673 79.3647Z" fill="#1185F7"/>
<path d="M88.3948 125.643L87.3094 168.825L41.6099 143.79V102.38L88.3948 125.643Z" fill="#FFCD52"/>
<path d="M88.3944 125.643L87.3091 168.825L147.002 148.754L149.492 102.38L88.3944 125.643Z" fill="#FFD26E"/>
<path d="M116.214 114.235C115.887 111.282 118.528 110.321 121.665 104.974C123.887 101.179 124.972 97.54 126.385 92.8037C128.085 87.1057 127.837 85.6652 129.653 83.9056C131.947 81.6791 136.037 80.3862 139.098 81.9105C142.96 83.8338 143.299 89.3522 143.459 91.8859C144.058 101.658 137.422 108.94 134.92 111.685C131.979 114.909 126.142 121.302 120.954 119.666C118.616 118.959 116.485 116.673 116.214 114.235Z" fill="#1185F7"/>
<path d="M83.7579 63.4958L92.4286 66.8835C92.4286 66.8835 91.048 74.6724 86.2917 73.2479C81.5354 71.8234 83.7579 63.4958 83.7579 63.4958Z" fill="white"/>
<path d="M83.7579 63.4958L92.4286 66.8835C92.4286 66.8835 91.048 74.6724 86.2917 73.2479C81.5354 71.8234 83.7579 63.4958 83.7579 63.4958Z" stroke="#63717C" stroke-linecap="round" stroke-linejoin="round"/>
<path d="M88.0914 65.1876C88.0914 65.1876 84.5002 71.1729 86.2918 73.2478C86.2918 73.2478 89.2087 70.9973 88.0914 65.1876Z" fill="#63717C"/>
<path d="M95.5808 68.2322L101.965 73.9461C101.965 73.9461 98.2662 80.2267 94.6192 77.4655C90.9721 74.7043 95.5808 68.2322 95.5808 68.2322Z" fill="white"/>
<path d="M95.5808 68.2322L101.965 73.9461C101.965 73.9461 98.2662 80.2267 94.6192 77.4655C90.9721 74.7043 95.5808 68.2322 95.5808 68.2322Z" stroke="#63717C" stroke-linecap="round" stroke-linejoin="round"/>
<path d="M98.7772 71.0812C98.7772 71.0812 93.7735 75.0714 94.6274 77.4655C94.6274 77.4575 97.8714 76.456 98.7772 71.0812Z" fill="#63717C"/>
<path d="M82.3535 73.176C82.0127 72.751 81.642 72.351 81.2442 71.9789C80.8544 71.5984 80.4413 71.2426 80.0072 70.9135C79.1477 70.2489 78.2096 69.6928 77.2141 69.2576C76.2238 68.8151 75.1824 68.4974 74.1137 68.3119C73.0347 68.1244 71.9409 68.035 70.8458 68.0446C71.1118 68.0127 71.3871 67.9848 71.6717 67.9608C71.9458 67.9263 72.2215 67.9077 72.4977 67.9049C73.054 67.9036 73.6098 67.9383 74.1616 68.0087C75.2642 68.1414 76.3404 68.4401 77.3538 68.8945C78.3779 69.3432 79.3288 69.9431 80.1748 70.6741C81.0364 71.3798 81.7729 72.2256 82.3535 73.176ZM79.688 74.385C78.7651 73.8543 77.7818 73.4364 76.7592 73.1401C75.7463 72.8365 74.7046 72.6386 73.6509 72.5495C73.3875 72.5096 73.1202 72.5216 72.8528 72.5016C72.587 72.4874 72.3206 72.4874 72.0548 72.5016H71.2568L70.4587 72.5775C69.3984 72.7007 68.3479 72.8967 67.3145 73.164C67.8172 72.9725 68.32 72.765 68.8347 72.6213C69.3602 72.4774 69.893 72.3615 70.4308 72.2742C71.5006 72.0915 72.5894 72.0459 73.6708 72.1385C74.7612 72.2282 75.8347 72.463 76.863 72.8368C77.3708 73.0224 77.8666 73.2397 78.3473 73.4872C78.821 73.7445 79.2698 74.045 79.688 74.385ZM78.2356 76.2125C77.7767 76.2125 77.3178 76.1926 76.859 76.2125C76.4001 76.2325 75.9452 76.2125 75.4903 76.2524C74.5807 76.2993 73.6746 76.4006 72.777 76.5557C71.8851 76.7064 71.0099 76.9429 70.1634 77.2619C69.948 77.3377 69.7644 77.4455 69.545 77.5373C69.4412 77.5851 69.3375 77.629 69.2377 77.6849L68.9464 77.8605C68.551 78.0946 68.1759 78.3615 67.8252 78.6585C68.1284 78.3081 68.4682 77.9911 68.8387 77.7128L69.122 77.5053C69.2178 77.4415 69.3255 77.3896 69.4253 77.3298C69.6288 77.222 69.8243 77.0904 70.0397 76.9946C70.8905 76.6078 71.7878 76.3329 72.7092 76.1766C74.5407 75.8744 76.411 75.8946 78.2356 76.2365V76.2125ZM96.2473 79.6481C97.3522 79.5243 98.4701 79.5849 99.5551 79.8276C100.651 80.0525 101.705 80.4427 102.683 80.9848C103.668 81.5091 104.566 82.182 105.345 82.9799C105.737 83.3733 106.1 83.7932 106.434 84.2368C106.604 84.4561 106.759 84.6868 106.897 84.9271C107.045 85.1585 107.192 85.3939 107.332 85.6293C106.673 84.7559 105.937 83.9426 105.133 83.1993C104.333 82.4676 103.448 81.8352 102.496 81.316C101.544 80.7957 100.533 80.3937 99.4833 80.1189C98.959 79.9732 98.4259 79.8612 97.8872 79.7837C97.3444 79.7006 96.7964 79.6553 96.2473 79.6481ZM96.9096 82.501C97.4328 82.6311 97.943 82.8088 98.4339 83.0317C98.9229 83.2692 99.3972 83.5357 99.8544 83.8298C100.77 84.4167 101.604 85.121 102.336 85.9246C103.068 86.7273 103.695 87.6188 104.204 88.5781C104.457 89.0552 104.685 89.5453 104.886 90.0465C105.078 90.5492 105.229 91.068 105.385 91.5787C104.966 90.5977 104.482 89.6459 103.936 88.7297L103.513 88.0594L103.047 87.385C102.896 87.1676 102.733 86.9584 102.56 86.7586C102.384 86.563 102.233 86.3595 102.041 86.16C101.329 85.3786 100.539 84.6726 99.6828 84.0532C98.823 83.4281 97.8921 82.907 96.9096 82.501ZM96.351 84.7595C97.7334 85.999 98.8881 87.471 99.7626 89.1088C100.199 89.9356 100.526 90.8154 100.736 91.7263C100.792 91.9498 100.808 92.1852 100.844 92.4166C100.844 92.5324 100.884 92.6481 100.892 92.7638V93.1149C100.898 93.5785 100.854 94.0415 100.76 94.4955C100.776 94.0385 100.756 93.5808 100.7 93.1269L100.664 92.7917C100.664 92.68 100.617 92.5683 100.593 92.4566C100.537 92.2371 100.505 92.0136 100.433 91.7982C100.172 90.9315 99.8271 90.0923 99.4035 89.2923C98.9801 88.4874 98.5098 87.7079 97.995 86.9581C97.7396 86.5591 97.4723 86.2119 97.1969 85.8448C96.9216 85.4777 96.6423 85.1186 96.351 84.7595Z" fill="#0234C1"/>
<path d="M88.319 128.735L104.124 147.238L148.14 128.931L149.333 105.492L88.3948 125.643L88.319 128.735ZM72.0789 140.291L88.319 128.723L88.3948 125.643L41.6099 105.409V121.78L72.0789 140.291Z" fill="#D8821D"/>
<path d="M79.7798 57.1913L79.5005 50.9187L83.2592 56.3813C83.2592 56.3813 81.4956 55.1283 79.7798 57.1913ZM112.36 76.2125L118.624 75.8135L113.222 79.66C113.222 79.66 114.447 77.8804 112.36 76.2125Z" fill="#FFCCD8"/>
<path d="M72.0787 137.262L29.8027 111.582L41.6097 102.38L88.3946 125.643L72.0787 137.262ZM161.842 120.18L104.208 144.153L88.3946 125.643L149.492 102.38L161.842 120.18Z" fill="#FFCD52"/>
<path d="M41.6095 124.494C42.2378 123.865 42.9186 123.291 43.6445 122.778C44.3574 122.248 45.1158 121.782 45.9109 121.385C45.2834 122.015 44.6025 122.589 43.8759 123.101C43.161 123.628 42.4029 124.094 41.6095 124.494ZM41.6095 127.897C42.6691 126.958 43.7772 126.075 44.9293 125.252C46.0707 124.415 47.2562 123.64 48.4806 122.93C47.4241 123.871 46.3172 124.754 45.1647 125.575C44.0219 126.412 42.8351 127.187 41.6095 127.897ZM41.6055 131.704C42.3756 131.09 43.1696 130.507 43.9716 129.948C44.7737 129.39 45.5677 128.827 46.3977 128.28C47.2276 127.734 48.0376 127.203 48.8756 126.684L50.1325 125.918C50.5594 125.671 50.9784 125.419 51.4094 125.184C51.0103 125.491 50.6113 125.779 50.2402 126.078L49.0432 126.94C48.2451 127.51 47.4471 128.061 46.6171 128.604C45.7872 129.146 44.9772 129.681 44.1392 130.2C43.3013 130.718 42.4673 131.229 41.6055 131.704ZM41.6095 136.947C42.7307 136.077 43.8799 135.239 45.033 134.405C46.1862 133.571 47.3473 132.761 48.5125 131.951C49.6776 131.141 50.8587 130.355 52.0478 129.557L53.8354 128.396C54.4379 128.021 55.0324 127.634 55.6429 127.267C55.0843 127.71 54.5097 128.129 53.9471 128.556L52.2234 129.813C51.0742 130.647 49.909 131.457 48.7399 132.267C47.5708 133.077 46.3937 133.863 45.2046 134.661C44.0155 135.459 42.8265 136.213 41.6095 136.947ZM41.6055 142.09C43.0619 140.989 44.5422 139.928 46.0266 138.866C47.5109 137.805 49.0152 136.78 50.5116 135.734C52.0079 134.689 53.5241 133.683 55.0444 132.678L57.3308 131.177C58.1009 130.686 58.867 130.188 59.6411 129.709C58.9149 130.264 58.1767 130.794 57.4425 131.337L55.22 132.933C53.7356 133.994 52.2313 135.024 50.735 136.069C49.2387 137.115 47.7224 138.12 46.1982 139.126C44.6739 140.131 43.1537 141.125 41.6055 142.09ZM45.045 145.566C46.5373 144.445 48.0576 143.355 49.5779 142.27C51.0981 141.185 52.6423 140.135 54.1706 139.078C55.6988 138.02 57.259 136.979 58.8151 135.95L61.1574 134.409C61.9554 133.907 62.7255 133.396 63.5196 132.905C62.7774 133.472 62.0192 134.014 61.2651 134.569L58.9907 136.201C57.4665 137.282 55.9262 138.34 54.398 139.393C52.8698 140.446 51.3096 141.496 49.7494 142.525C48.1893 143.555 46.6331 144.58 45.045 145.566ZM49.6417 148.175C51.134 147.05 52.6503 145.961 54.1746 144.88C55.6988 143.798 57.235 142.741 58.7673 141.687C60.2995 140.634 61.8517 139.585 63.4118 138.555L65.7501 137.015C66.5481 136.516 67.3222 136.001 68.1163 135.511C67.3701 136.077 66.612 136.624 65.8618 137.179L63.5834 138.811C62.0631 139.892 60.5229 140.945 58.9907 142.003C57.4585 143.06 55.9023 144.105 54.3461 145.135C52.79 146.164 51.2258 147.186 49.6417 148.175ZM54.2663 150.633C55.7587 149.508 57.2789 148.419 58.7992 147.338C60.3194 146.256 61.8636 145.199 63.3919 144.145C64.9201 143.092 66.4803 142.043 68.0364 141.013L70.3787 139.473C71.1767 138.97 71.9468 138.459 72.7409 137.969C71.9987 138.535 71.2406 139.078 70.4904 139.632L68.232 141.253C66.7077 142.334 65.1675 143.391 63.6393 144.445C62.111 145.498 60.5509 146.547 58.9907 147.577C57.4305 148.606 55.8624 149.632 54.2663 150.633ZM58.879 152.972C61.2731 151.228 63.6871 149.524 66.1052 147.824L73.3953 142.765L80.7372 137.781L84.4281 135.319L88.139 132.889L84.5478 135.479L80.9247 138.036L73.6347 143.092L66.2927 148.076C63.8428 149.724 61.3649 151.364 58.879 152.972ZM88.0791 138.06C86.0202 139.573 83.9373 141.049 81.8505 142.521C79.7636 143.994 77.6528 145.438 75.5579 146.911C73.4631 148.383 71.3363 149.791 69.2136 151.212L66.0214 153.331C64.952 154.029 63.8867 154.735 62.8093 155.422C63.8348 154.66 64.8802 153.921 65.9137 153.171L69.038 150.957C71.1288 149.484 73.2357 148.04 75.3305 146.567C77.4254 145.095 79.5521 143.687 81.6749 142.27C83.7977 140.853 85.9284 139.437 88.0791 138.06ZM87.9435 143.567C86.2596 144.824 84.5518 146.041 82.844 147.254C81.1362 148.467 79.4005 149.648 77.6807 150.845C75.961 152.042 74.2172 153.223 72.4695 154.372L69.828 156.108C68.9422 156.671 68.0684 157.249 67.1786 157.804C68.0165 157.173 68.8704 156.567 69.7163 155.944L72.278 154.121C73.9898 152.924 75.7176 151.727 77.4413 150.53C79.1651 149.333 80.9048 148.167 82.6525 147.01C84.4002 145.853 86.1878 144.688 87.9435 143.567ZM87.7839 149.504C86.507 150.482 85.2062 151.42 83.9054 152.353C82.6046 153.287 81.2759 154.197 79.9631 155.118C78.6503 156.04 77.3096 156.922 75.9729 157.804L73.9778 159.117C73.2955 159.544 72.6252 159.982 71.9388 160.397C72.5733 159.907 73.2237 159.436 73.8661 158.957L75.8173 157.548C77.1221 156.615 78.4428 155.709 79.7596 154.787C81.0764 153.865 82.4091 152.984 83.7498 152.102C85.0905 151.22 86.4232 150.346 87.7839 149.504ZM87.6522 155.218C86.7664 155.924 85.8526 156.599 84.9389 157.265C84.0251 157.931 83.0994 158.578 82.1697 159.22C81.24 159.863 80.2983 160.493 79.3446 161.104L77.9161 162.001C77.4293 162.293 76.9545 162.596 76.4597 162.879C76.9026 162.524 77.3575 162.189 77.8044 161.842L79.1731 160.836C80.0828 160.166 81.0125 159.52 81.9422 158.877C82.872 158.235 83.8136 157.604 84.7673 156.994C85.7209 156.383 86.6706 155.773 87.6522 155.218ZM87.5085 160.844C85.4803 162.56 83.2839 164.067 80.9527 165.341C81.9606 164.477 83.017 163.671 84.1169 162.927C85.2075 162.17 86.3398 161.474 87.5085 160.844ZM87.3849 165.493C87.0176 165.916 86.5948 166.288 86.1279 166.598C85.6711 166.921 85.1732 167.181 84.6476 167.372C85.396 166.535 86.3349 165.891 87.3849 165.493Z" fill="#D8821D"/>
<path d="M84.9072 83.4268C84.9699 82.8212 85.1516 82.2341 85.4419 81.699C85.7135 81.1578 86.0751 80.6666 86.5113 80.2466C86.3181 80.8104 86.0792 81.3576 85.797 81.8826C85.5272 82.4123 85.2302 82.9277 84.9072 83.4268Z" fill="#0234C1"/>
<path d="M85.6214 75.0674L91.2515 78.1638C91.2515 78.1638 84.3445 85.0508 85.6214 75.0674Z" fill="#FFCCD8"/>
<path d="M152.026 47.3755L116.546 39.7343C115.88 39.5911 115.284 39.2243 114.857 38.695C114.429 38.1657 114.196 37.5059 114.195 36.8254V20.4258C114.195 19.6363 114.509 18.8792 115.067 18.321C115.625 17.7627 116.383 17.4491 117.172 17.4491H152.633C153.024 17.4481 153.412 17.5243 153.774 17.6734C154.136 17.8225 154.465 18.0416 154.743 18.3181C155.02 18.5946 155.24 18.9231 155.39 19.2848C155.54 19.6465 155.617 20.0342 155.617 20.4258V44.4666C155.618 44.9096 155.519 45.347 155.328 45.7469C155.138 46.1468 154.86 46.499 154.516 46.7778C154.172 47.0566 153.769 47.255 153.339 47.3584C152.908 47.4618 152.46 47.4677 152.026 47.3755V47.3755Z" stroke="#1185F7" stroke-linecap="round" stroke-linejoin="round"/>
<path d="M117.515 39.9418L118.908 43.8322L125.176 41.5937L117.515 39.9418Z" stroke="#1185F7" stroke-linecap="round" stroke-linejoin="round"/>
<path d="M124.917 41.6854L125.176 41.5937L117.515 39.9417L118.01 41.3183L124.917 41.6854ZM134.92 36.977H133.783L132.271 22.2612L136.085 21.4432L134.92 36.977Z" fill="#1185F7"/>
<path d="M134.29 39.9418C134.783 39.9418 135.184 39.5416 135.184 39.048C135.184 38.5543 134.783 38.1542 134.29 38.1542C133.796 38.1542 133.396 38.5543 133.396 39.048C133.396 39.5416 133.796 39.9418 134.29 39.9418Z" fill="#1185F7"/>
<path d="M65.0002 104.603C64.1145 104.125 63.2825 103.554 62.5183 102.899C61.7713 102.223 61.1021 101.465 60.5232 100.64C59.3758 98.9644 58.5628 97.0824 58.1291 95.0981C57.6993 93.1228 57.5223 91.1008 57.6024 89.0809C57.6696 87.0705 57.9532 85.0732 58.4483 83.1235C58.2807 84.1131 58.1411 85.1186 58.0493 86.1002C57.9575 87.0818 57.9017 88.0953 57.9017 89.0889C57.8689 91.0784 58.0725 93.0648 58.5082 95.0063C58.92 96.9501 59.6856 98.8017 60.7666 100.469C61.3121 101.297 61.9463 102.064 62.658 102.755C63.3786 103.444 64.1628 104.062 65.0002 104.603ZM53.4686 95.1619C53.5204 96.5425 53.6082 97.9191 53.7798 99.2798C53.9533 100.64 54.2199 101.986 54.5778 103.31C54.9266 104.632 55.3982 105.918 55.9864 107.152C56.5811 108.389 57.319 109.552 58.185 110.616C57.9456 110.369 57.7101 110.117 57.4747 109.862C57.2393 109.606 57.0398 109.323 56.8203 109.064C56.6009 108.804 56.4213 108.489 56.2378 108.198C56.0461 107.908 55.8703 107.609 55.711 107.3C55.0566 106.07 54.5465 104.769 54.1908 103.422C53.8353 102.078 53.6016 100.705 53.4925 99.3197C53.3724 97.9367 53.3644 96.5462 53.4686 95.1619ZM109.028 97.9151C109.388 98.7797 109.655 99.6798 109.826 100.601C109.975 101.524 110.035 102.459 110.005 103.394C109.9 105.273 109.496 107.124 108.808 108.876C108.119 110.618 107.243 112.279 106.195 113.832C105.152 115.386 103.949 116.825 102.604 118.125C103.218 117.428 103.799 116.705 104.347 115.955C104.906 115.217 105.429 114.45 105.92 113.664C106.916 112.108 107.754 110.456 108.421 108.733C108.754 107.873 109.032 106.994 109.251 106.099C109.448 105.201 109.582 104.29 109.65 103.374C109.791 101.531 109.579 99.6788 109.028 97.9151ZM114.287 115.783C114.565 114.843 114.796 113.89 114.977 112.926C115.155 111.969 115.258 110.999 115.285 110.025C115.31 109.053 115.247 108.081 115.097 107.12C115.022 106.638 114.92 106.16 114.794 105.688C114.73 105.453 114.67 105.217 114.598 104.982C114.526 104.746 114.443 104.515 114.371 104.279C114.486 104.499 114.594 104.722 114.698 104.946C114.802 105.169 114.885 105.405 114.981 105.636C115.142 106.105 115.276 106.584 115.38 107.069C115.598 108.043 115.694 109.04 115.668 110.037C115.641 111.034 115.507 112.026 115.269 112.994C115.036 113.955 114.708 114.889 114.287 115.783Z" fill="#0234C1"/>
</g>
<defs>
<clipPath id="clip0_14_8111">
<rect width="200" height="168.825" fill="white"/>
</clipPath>
</defs>
</svg>
