<svg width="20" height="20" viewBox="0 0 20 20" fill="none" xmlns="http://www.w3.org/2000/svg">
<path fill-rule="evenodd" clip-rule="evenodd" d="M10.0295 5.47992C10.3239 5.47992 10.5671 5.69864 10.6056 5.98242L10.6109 6.06131V13.9239C10.6109 14.245 10.3506 14.5053 10.0295 14.5053C9.7352 14.5053 9.49195 14.2866 9.45345 14.0028L9.44814 13.9239V6.06131C9.44814 5.74022 9.70844 5.47992 10.0295 5.47992ZM6.41196 8.02455C6.7063 8.02455 6.94955 8.24327 6.98805 8.52705L6.99336 8.60595V13.9239C6.99336 14.245 6.73306 14.5053 6.41196 14.5053C6.11762 14.5053 5.87437 14.2865 5.83587 14.0028L5.83057 13.9239V8.60595C5.83057 8.28485 6.09087 8.02455 6.41196 8.02455ZM14.1641 11.3372C14.1256 11.0534 13.8824 10.8347 13.588 10.8347C13.2669 10.8347 13.0066 11.095 13.0066 11.4161V13.9239L13.0119 14.0028C13.0504 14.2866 13.2937 14.5053 13.588 14.5053C13.9091 14.5053 14.1694 14.245 14.1694 13.9239V11.4161L14.1641 11.3372Z" fill="#0075E1"/>
</svg>
