<svg width="26" height="26" viewBox="0 0 26 26" fill="none" xmlns="http://www.w3.org/2000/svg">
<g id="visibility_off_24px">
<path id="icon/action/visibility_off_24px" fill-rule="evenodd" clip-rule="evenodd" d="M2.93587 4.91835C2.51337 4.49585 2.51337 3.81335 2.93587 3.39085C3.35837 2.96835 4.05171 2.96835 4.47421 3.39085L22.1434 21.0817C22.5659 21.5042 22.5659 22.1867 22.1434 22.6092C21.7209 23.0317 21.0384 23.0317 20.6159 22.6092L17.6692 19.6625C16.2175 20.2258 14.6467 20.5508 13 20.5508C7.58337 20.5508 2.95754 17.1817 1.08337 12.4258C1.91754 10.2917 3.31504 8.45002 5.07004 7.05252L2.93587 4.91835ZM18.4167 12.4258C18.4167 9.43585 15.99 7.00918 13 7.00918C12.4475 7.00918 11.9167 7.11752 11.4075 7.26918L9.05671 4.91835C10.3025 4.51752 11.6242 4.30085 13 4.30085C18.4167 4.30085 23.0425 7.67002 24.9167 12.415C24.1692 14.3217 22.9775 15.99 21.4717 17.3225L18.1567 14.0075C18.3084 13.5092 18.4167 12.9783 18.4167 12.4258ZM13 17.8425C10.01 17.8425 7.58337 15.4158 7.58337 12.4258C7.58337 11.5917 7.77837 10.8008 8.11421 10.1075L9.81504 11.8083C9.78254 12.0033 9.75004 12.2092 9.75004 12.4258C9.75004 14.2242 11.2017 15.6758 13 15.6758C13.2167 15.6758 13.4117 15.6433 13.6175 15.6L15.3184 17.3008C14.6142 17.6475 13.8342 17.8425 13 17.8425ZM16.2175 12.0683C16.055 10.5517 14.8634 9.37085 13.3575 9.20835L16.2175 12.0683Z" fill="black" fill-opacity="0.54"/>
</g>
</svg>
