<?xml version="1.0" encoding="utf-8"?>
<!-- Generator: Adobe Illustrator 26.0.0, SVG Export Plug-In . SVG Version: 6.00 Build 0)  -->
<svg version="1.1" id="Layer_1" xmlns="http://www.w3.org/2000/svg" xmlns:xlink="http://www.w3.org/1999/xlink" x="0px" y="0px"
	 viewBox="0 0 612 792" style="enable-background:new 0 0 612 792;" xml:space="preserve">
<g>
	<g>
		<path style="fill:#09263A;" d="M355.56,452.57v13.64h-0.87v-13.64H355.56z"/>
		<path style="fill:#09263A;" d="M371.91,456.47c0.79,0.6,1.32,1.39,1.61,2.37v-6.95h0.87v14.32h-0.87v-3.13
			c-0.28,0.98-0.82,1.77-1.61,2.37c-0.79,0.6-1.75,0.9-2.9,0.9c-0.98,0-1.85-0.22-2.6-0.65c-0.75-0.43-1.34-1.06-1.77-1.88
			s-0.64-1.78-0.64-2.87c0-1.1,0.21-2.05,0.64-2.86c0.43-0.81,1.02-1.43,1.77-1.87c0.75-0.43,1.62-0.65,2.6-0.65
			C370.16,455.57,371.13,455.87,371.91,456.47z M366.06,457.58c-0.78,0.83-1.17,1.95-1.17,3.37c0,1.43,0.39,2.56,1.16,3.39
			c0.77,0.83,1.83,1.24,3.15,1.24c0.83,0,1.57-0.19,2.23-0.57c0.66-0.38,1.17-0.92,1.54-1.63c0.37-0.7,0.55-1.51,0.55-2.43
			c0-0.92-0.18-1.72-0.55-2.42c-0.37-0.7-0.88-1.23-1.54-1.62c-0.66-0.38-1.4-0.57-2.23-0.57
			C367.89,456.34,366.84,456.76,366.06,457.58z"/>
		<path style="fill:#09263A;" d="M390.54,464.81c0.72-0.54,1.16-1.27,1.32-2.2h0.91c-0.19,1.12-0.72,2.03-1.58,2.71
			c-0.86,0.68-1.95,1.03-3.28,1.03c-0.99,0-1.87-0.22-2.64-0.65c-0.77-0.43-1.37-1.05-1.81-1.87c-0.44-0.81-0.66-1.77-0.66-2.88
			c0-1.1,0.22-2.05,0.66-2.86c0.44-0.81,1.04-1.43,1.81-1.87c0.77-0.43,1.65-0.65,2.64-0.65c1.02,0,1.9,0.22,2.64,0.65
			c0.74,0.43,1.3,1,1.68,1.7c0.38,0.7,0.57,1.45,0.57,2.25c0,0.32-0.03,0.66-0.1,1.03h-9.04c0.01,0.98,0.22,1.8,0.61,2.47
			c0.39,0.66,0.9,1.15,1.53,1.47c0.63,0.32,1.31,0.47,2.06,0.47C388.93,465.61,389.82,465.34,390.54,464.81z M385.82,456.77
			c-0.63,0.32-1.14,0.81-1.54,1.47c-0.39,0.66-0.6,1.47-0.61,2.44h8.28c0.05-0.97-0.11-1.78-0.48-2.45
			c-0.37-0.66-0.88-1.15-1.51-1.47s-1.32-0.47-2.05-0.47C387.15,456.29,386.46,456.45,385.82,456.77z"/>
		<path style="fill:#09263A;" d="M408.65,456.47c0.79,0.6,1.32,1.39,1.61,2.37v-3.13h0.87v10.51h-0.87v-3.13
			c-0.28,0.98-0.82,1.77-1.61,2.37c-0.79,0.6-1.75,0.9-2.9,0.9c-0.98,0-1.85-0.22-2.6-0.65c-0.75-0.43-1.34-1.06-1.77-1.88
			s-0.64-1.78-0.64-2.87c0-1.1,0.21-2.05,0.64-2.86c0.43-0.81,1.02-1.43,1.77-1.87c0.75-0.43,1.62-0.65,2.6-0.65
			C406.9,455.57,407.87,455.87,408.65,456.47z M402.8,457.58c-0.78,0.83-1.17,1.95-1.17,3.37c0,1.43,0.39,2.56,1.16,3.39
			c0.77,0.83,1.83,1.24,3.15,1.24c0.83,0,1.57-0.19,2.22-0.57c0.66-0.38,1.17-0.92,1.54-1.63c0.37-0.7,0.55-1.51,0.55-2.43
			c0-0.92-0.18-1.72-0.55-2.42c-0.37-0.7-0.88-1.23-1.54-1.62c-0.66-0.38-1.4-0.57-2.22-0.57
			C404.63,456.34,403.58,456.76,402.8,457.58z"/>
		<path style="fill:#09263A;" d="M421.38,456.5v6.75c0,0.84,0.15,1.41,0.44,1.71s0.82,0.45,1.57,0.45h1.1v0.79h-1.2
			c-0.97,0-1.67-0.23-2.12-0.68c-0.44-0.45-0.67-1.21-0.67-2.28v-6.75h-1.66v-0.79h1.66v-2.67h0.87v2.67h3.11v0.79H421.38z"/>
		<path style="fill:#09263A;" d="M439.86,464.81c0.72-0.54,1.16-1.27,1.32-2.2h0.91c-0.19,1.12-0.72,2.03-1.58,2.71
			c-0.86,0.68-1.95,1.03-3.28,1.03c-0.99,0-1.87-0.22-2.64-0.65c-0.77-0.43-1.37-1.05-1.81-1.87c-0.44-0.81-0.66-1.77-0.66-2.88
			c0-1.1,0.22-2.05,0.66-2.86c0.44-0.81,1.04-1.43,1.81-1.87c0.77-0.43,1.65-0.65,2.64-0.65c1.02,0,1.9,0.22,2.64,0.65
			c0.74,0.43,1.3,1,1.68,1.7c0.38,0.7,0.57,1.45,0.57,2.25c0,0.32-0.03,0.66-0.1,1.03h-9.04c0.01,0.98,0.22,1.8,0.61,2.47
			c0.39,0.66,0.9,1.15,1.53,1.47c0.63,0.32,1.31,0.47,2.06,0.47C438.25,465.61,439.14,465.34,439.86,464.81z M435.14,456.77
			c-0.63,0.32-1.14,0.81-1.54,1.47c-0.39,0.66-0.6,1.47-0.61,2.44h8.28c0.05-0.97-0.11-1.78-0.48-2.45
			c-0.37-0.66-0.88-1.15-1.51-1.47s-1.32-0.47-2.05-0.47C436.47,456.29,435.77,456.45,435.14,456.77z"/>
		<path style="fill:#09263A;" d="M462.56,452.57v13.64h-0.87v-13.64H462.56z"/>
		<path style="fill:#09263A;" d="M479.39,456.65c0.77,0.77,1.16,1.92,1.16,3.42v6.13h-0.87v-6.09c0-1.26-0.32-2.23-0.95-2.89
			c-0.63-0.66-1.5-1-2.59-1c-1.13,0-2.05,0.37-2.74,1.11c-0.69,0.74-1.03,1.84-1.03,3.28v5.59h-0.87v-10.51h0.87v2.77
			c0.26-0.98,0.75-1.72,1.48-2.23c0.73-0.5,1.57-0.75,2.52-0.75C477.61,455.49,478.61,455.88,479.39,456.65z"/>
		<path style="fill:#09263A;" d="M497.26,456.65c0.77,0.77,1.16,1.92,1.16,3.42v6.13h-0.87v-6.09c0-1.26-0.32-2.23-0.95-2.89
			c-0.63-0.66-1.5-1-2.59-1c-1.14,0-2.05,0.37-2.74,1.11c-0.69,0.74-1.04,1.84-1.04,3.28v5.59h-0.87v-10.51h0.87v2.77
			c0.26-0.98,0.75-1.72,1.48-2.23s1.57-0.75,2.53-0.75C495.48,455.49,496.49,455.88,497.26,456.65z"/>
		<path style="fill:#09263A;" d="M514.6,456.22c0.79,0.43,1.4,1.05,1.85,1.87c0.45,0.81,0.67,1.77,0.67,2.86
			c0,1.11-0.22,2.07-0.67,2.88s-1.06,1.43-1.85,1.87c-0.79,0.43-1.68,0.65-2.67,0.65c-0.98,0-1.86-0.22-2.65-0.65
			c-0.79-0.43-1.41-1.06-1.86-1.88c-0.45-0.82-0.68-1.78-0.68-2.87c0-1.1,0.23-2.05,0.68-2.86c0.45-0.81,1.07-1.43,1.86-1.87
			c0.79-0.43,1.67-0.65,2.65-0.65C512.92,455.57,513.81,455.79,514.6,456.22z M509.81,456.85c-0.65,0.34-1.18,0.85-1.58,1.54
			c-0.4,0.69-0.6,1.54-0.6,2.56c0,1.02,0.2,1.88,0.6,2.57c0.4,0.7,0.93,1.21,1.58,1.55c0.65,0.34,1.36,0.5,2.12,0.5
			c0.76,0,1.47-0.17,2.12-0.5c0.65-0.34,1.18-0.85,1.58-1.55c0.4-0.7,0.6-1.55,0.6-2.57c0-1.02-0.2-1.87-0.59-2.56
			c-0.39-0.69-0.92-1.2-1.57-1.54c-0.65-0.34-1.36-0.5-2.14-0.5C511.17,456.34,510.46,456.51,509.81,456.85z"/>
		<path style="fill:#09263A;" d="M529.17,465.11l3.85-9.4h0.95l-4.35,10.51h-0.93l-4.33-10.51h0.93L529.17,465.11z"/>
		<path style="fill:#09263A;" d="M549.12,456.47c0.79,0.6,1.32,1.39,1.61,2.37v-3.13h0.87v10.51h-0.87v-3.13
			c-0.28,0.98-0.82,1.77-1.61,2.37c-0.79,0.6-1.75,0.9-2.9,0.9c-0.98,0-1.85-0.22-2.6-0.65c-0.75-0.43-1.34-1.06-1.77-1.88
			c-0.43-0.82-0.64-1.78-0.64-2.87c0-1.1,0.21-2.05,0.64-2.86c0.43-0.81,1.02-1.43,1.77-1.87c0.75-0.43,1.62-0.65,2.6-0.65
			C547.36,455.57,548.33,455.87,549.12,456.47z M543.26,457.58c-0.78,0.83-1.17,1.95-1.17,3.37c0,1.43,0.39,2.56,1.16,3.39
			c0.77,0.83,1.83,1.24,3.15,1.24c0.83,0,1.57-0.19,2.23-0.57c0.66-0.38,1.17-0.92,1.54-1.63c0.37-0.7,0.55-1.51,0.55-2.43
			c0-0.92-0.18-1.72-0.55-2.42c-0.37-0.7-0.88-1.23-1.54-1.62c-0.66-0.38-1.4-0.57-2.23-0.57
			C545.09,456.34,544.04,456.76,543.26,457.58z"/>
		<path style="fill:#09263A;" d="M561.85,456.5v6.75c0,0.84,0.15,1.41,0.45,1.71s0.82,0.45,1.57,0.45h1.1v0.79h-1.2
			c-0.97,0-1.67-0.23-2.12-0.68c-0.45-0.45-0.67-1.21-0.67-2.28v-6.75h-1.66v-0.79h1.66v-2.67h0.87v2.67h3.11v0.79H561.85z"/>
		<path style="fill:#09263A;" d="M580.32,464.81c0.72-0.54,1.16-1.27,1.32-2.2h0.91c-0.19,1.12-0.72,2.03-1.58,2.71
			c-0.86,0.68-1.95,1.03-3.28,1.03c-0.99,0-1.87-0.22-2.64-0.65c-0.77-0.43-1.37-1.05-1.81-1.87s-0.66-1.77-0.66-2.88
			c0-1.1,0.22-2.05,0.66-2.86c0.44-0.81,1.04-1.43,1.81-1.87c0.77-0.43,1.65-0.65,2.64-0.65c1.02,0,1.9,0.22,2.64,0.65
			c0.74,0.43,1.3,1,1.68,1.7c0.38,0.7,0.57,1.45,0.57,2.25c0,0.32-0.03,0.66-0.1,1.03h-9.04c0.01,0.98,0.22,1.8,0.61,2.47
			c0.39,0.66,0.9,1.15,1.53,1.47c0.63,0.32,1.31,0.47,2.06,0.47C578.71,465.61,579.6,465.34,580.32,464.81z M575.6,456.77
			c-0.63,0.32-1.14,0.81-1.54,1.47c-0.39,0.66-0.6,1.47-0.61,2.44h8.28c0.05-0.97-0.11-1.78-0.48-2.45
			c-0.37-0.66-0.88-1.15-1.51-1.47c-0.63-0.32-1.32-0.47-2.05-0.47C576.93,456.29,576.23,456.45,575.6,456.77z"/>
	</g>
	<g>
		<path style="fill:#09263A;" d="M264.6,347.96c7.45,5.98,12.27,14.07,14.47,24.26h-22.87c-1.69-4.13-4.28-7.37-7.77-9.73
			c-3.5-2.36-7.64-3.54-12.44-3.54c-6.32,0-11.41,2.32-15.29,6.95c-3.88,4.63-5.81,10.82-5.81,18.57c0,7.75,1.94,13.92,5.81,18.51
			c3.87,4.59,8.97,6.89,15.29,6.89c4.8,0,8.95-1.18,12.44-3.54c3.49-2.36,6.08-5.56,7.77-9.6h22.87
			c-2.19,10.11-7.01,18.17-14.47,24.19c-7.45,6.02-16.87,9.03-28.24,9.03c-8.68,0-16.3-1.91-22.87-5.75
			c-6.57-3.83-11.64-9.2-15.22-16.11c-3.58-6.91-5.37-14.78-5.37-23.63s1.79-16.72,5.37-23.63c3.58-6.91,8.65-12.27,15.22-16.11
			c6.57-3.83,14.19-5.75,22.87-5.75C247.73,338.99,257.14,341.98,264.6,347.96z"/>
		<path style="fill:#09263A;" d="M342.92,362.17c5.52,2.91,9.85,7.1,13.01,12.57c3.16,5.48,4.74,11.88,4.74,19.2
			c0,7.33-1.58,13.73-4.74,19.2c-3.16,5.48-7.5,9.66-13.01,12.57c-5.52,2.91-11.77,4.36-18.76,4.36c-6.99,0-13.27-1.45-18.83-4.36
			c-5.56-2.91-9.92-7.1-13.08-12.57c-3.16-5.47-4.74-11.88-4.74-19.2c0-7.33,1.58-13.73,4.74-19.2c3.16-5.47,7.52-9.66,13.08-12.57
			c5.56-2.91,11.83-4.36,18.83-4.36C331.15,357.82,337.41,359.27,342.92,362.17z M313.74,381c-2.82,2.99-4.23,7.31-4.23,12.95
			c0,5.64,1.41,9.94,4.23,12.89c2.82,2.95,6.3,4.42,10.42,4.42c4.13,0,7.58-1.47,10.36-4.42c2.78-2.95,4.17-7.24,4.17-12.89
			c0-5.64-1.39-9.96-4.17-12.95c-2.78-2.99-6.23-4.49-10.36-4.49C320.04,376.51,316.56,378.01,313.74,381z"/>
		<path style="fill:#09263A;" d="M412.6,361.48c3.87,2.44,6.7,5.77,8.46,9.98v-35.75h21.6v93.49h-21.6v-12.76
			c-1.77,4.21-4.59,7.54-8.46,9.98c-3.88,2.44-8.51,3.66-13.9,3.66c-5.81,0-11.01-1.45-15.6-4.36c-4.59-2.91-8.21-7.1-10.87-12.57
			c-2.65-5.47-3.98-11.88-3.98-19.2c0-7.41,1.33-13.83,3.98-19.27c2.65-5.43,6.27-9.6,10.87-12.51c4.59-2.91,9.79-4.36,15.6-4.36
			C404.09,357.82,408.73,359.04,412.6,361.48z M394.47,381.32c-2.82,3.03-4.23,7.24-4.23,12.63c0,5.39,1.41,9.6,4.23,12.63
			c2.82,3.03,6.55,4.55,11.18,4.55c4.55,0,8.27-1.56,11.18-4.67c2.91-3.11,4.36-7.28,4.36-12.51c0-5.31-1.45-9.5-4.36-12.57
			c-2.91-3.07-6.63-4.61-11.18-4.61C401.02,376.77,397.29,378.28,394.47,381.32z"/>
		<path style="fill:#09263A;" d="M459.09,330.72c2.36-2.15,5.47-3.22,9.35-3.22c3.87,0,6.99,1.07,9.35,3.22
			c2.36,2.15,3.54,4.86,3.54,8.15c0,3.2-1.18,5.87-3.54,8.02c-2.36,2.15-5.48,3.22-9.35,3.22c-3.88,0-6.99-1.07-9.35-3.22
			c-2.36-2.15-3.54-4.82-3.54-8.02C455.56,335.58,456.73,332.86,459.09,330.72z M479.18,358.7v70.5h-21.6v-70.5H479.18z"/>
		<path style="fill:#09263A;" d="M552.33,339.88v17.18h-36.64v19.58h28.3v16.42h-28.3v36.13h-21.6v-89.32H552.33z"/>
		<path style="fill:#09263A;" d="M564.96,330.72c2.36-2.15,5.47-3.22,9.35-3.22c3.87,0,6.99,1.07,9.35,3.22
			c2.36,2.15,3.54,4.86,3.54,8.15c0,3.2-1.18,5.87-3.54,8.02c-2.36,2.15-5.48,3.22-9.35,3.22c-3.88,0-6.99-1.07-9.35-3.22
			c-2.36-2.15-3.54-4.82-3.54-8.02C561.43,335.58,562.6,332.86,564.96,330.72z M585.05,358.7v70.5h-21.6v-70.5H585.05z"/>
	</g>
	<g>
		<linearGradient id="SVGID_1_" gradientUnits="userSpaceOnUse" x1="102.4194" y1="408.0265" x2="115.925" y2="425.9214">
			<stop  offset="0" style="stop-color:#8655A2"/>
			<stop  offset="0.4926" style="stop-color:#6053A3"/>
			<stop  offset="1" style="stop-color:#30469D"/>
		</linearGradient>
		<path style="fill-rule:evenodd;clip-rule:evenodd;fill:url(#SVGID_1_);" d="M95,416.31l11.66,11.55
			c9.85,3.27,14.21-2.42,15.68-11.55H95z"/>
		
			<linearGradient id="SVGID_00000114072443262605869640000004737576712137448363_" gradientUnits="userSpaceOnUse" x1="96.1578" y1="378.0407" x2="129.0224" y2="360.2581">
			<stop  offset="0" style="stop-color:#EE2134"/>
			<stop  offset="0.4926" style="stop-color:#A91E23"/>
			<stop  offset="1" style="stop-color:#4D121C"/>
		</linearGradient>
		<path style="fill-rule:evenodd;clip-rule:evenodd;fill:url(#SVGID_00000114072443262605869640000004737576712137448363_);" d="
			M95,374h27.34c-0.58-8.39-4.75-13.44-14.75-12.28L95,374z"/>
		
			<linearGradient id="SVGID_00000102533992830639479670000017254160085547088554_" gradientUnits="userSpaceOnUse" x1="163.7712" y1="322.106" x2="12.9551" y2="388.7354">
			<stop  offset="0" style="stop-color:#F6F197"/>
			<stop  offset="0.1177" style="stop-color:#F7D06E"/>
			<stop  offset="0.2385" style="stop-color:#F7B54A"/>
			<stop  offset="0.3508" style="stop-color:#F7A230"/>
			<stop  offset="0.4504" style="stop-color:#F79622"/>
			<stop  offset="0.5269" style="stop-color:#F7921E"/>
			<stop  offset="1" style="stop-color:#CD128C"/>
		</linearGradient>
		<path style="fill-rule:evenodd;clip-rule:evenodd;fill:url(#SVGID_00000102533992830639479670000017254160085547088554_);" d="
			M67.43,356.56c13.52-2.93,28.3-1.08,40.16,5.16c5.79,3.04,10.89,7.16,14.75,12.28l24.67-24.6
			c-12.78-14.59-31.55-23.75-52.51-23.75c-38.5,0-69.7,31.1-69.7,69.49C31.1,375.62,47.35,360.92,67.43,356.56L67.43,356.56z"/>
		
			<linearGradient id="SVGID_00000111886317465810644750000017144900733689692081_" gradientUnits="userSpaceOnUse" x1="150.1221" y1="418.6603" x2="60.533" y2="431.7157">
			<stop  offset="0" style="stop-color:#4A71B7"/>
			<stop  offset="0.5265" style="stop-color:#3C58A8"/>
			<stop  offset="1" style="stop-color:#28276F"/>
		</linearGradient>
		<path style="fill-rule:evenodd;clip-rule:evenodd;fill:url(#SVGID_00000111886317465810644750000017144900733689692081_);" d="
			M106.66,427.86c-3.78,1.39-7.88,2.16-12.16,2.16c-19.31,0-34.95-15.59-34.95-34.88c-6.64,31.72,24.95,70.49,60.9,64.56
			c10.31-4.12,19.38-10.62,26.57-18.79l-24.67-24.6l0,0C118.33,421.51,112.92,425.55,106.66,427.86L106.66,427.86z"/>
		
			<linearGradient id="SVGID_00000098902935458481283480000016062450963240537534_" gradientUnits="userSpaceOnUse" x1="93.1878" y1="472.7722" x2="34.6619" y2="347.6172">
			<stop  offset="0" style="stop-color:#C46CAB"/>
			<stop  offset="0.4926" style="stop-color:#8B3F98"/>
			<stop  offset="1" style="stop-color:#5D3393"/>
		</linearGradient>
		<path style="fill-rule:evenodd;clip-rule:evenodd;fill:url(#SVGID_00000098902935458481283480000016062450963240537534_);" d="
			M120.45,459.7c-33.9,3.39-60.9-30.03-60.9-64.56c0-14.51,8.88-26.99,21.59-32.22c-28.15-1.15-51.2,22.21-53.75,51.08
			c8.22,29.22,35.18,50.66,67.11,50.66C103.69,464.66,112.46,462.89,120.45,459.7L120.45,459.7z"/>
		
			<linearGradient id="SVGID_00000149343638257493658060000000010467597696436669_" gradientUnits="userSpaceOnUse" x1="89.6958" y1="381.5372" x2="122.5598" y2="363.7549">
			<stop  offset="0" style="stop-color:#EE2134"/>
			<stop  offset="0.4926" style="stop-color:#A91E23"/>
			<stop  offset="1" style="stop-color:#4D121C"/>
		</linearGradient>
		<path style="fill-rule:evenodd;clip-rule:evenodd;fill:url(#SVGID_00000149343638257493658060000000010467597696436669_);" d="
			M107.59,361.72l-3.63,3.5c6.76,1.35,13.09,4.35,18.38,8.78C118.48,368.88,113.38,364.76,107.59,361.72L107.59,361.72z"/>
		
			<linearGradient id="SVGID_00000132060208001994373830000014632482994282480805_" gradientUnits="userSpaceOnUse" x1="182.0637" y1="310.5824" x2="31.2471" y2="377.2121">
			<stop  offset="0" style="stop-color:#F6F197"/>
			<stop  offset="0.1177" style="stop-color:#F7D06E"/>
			<stop  offset="0.2385" style="stop-color:#F7B54A"/>
			<stop  offset="0.3508" style="stop-color:#F7A230"/>
			<stop  offset="0.4504" style="stop-color:#F79622"/>
			<stop  offset="0.5269" style="stop-color:#F7921E"/>
			<stop  offset="1" style="stop-color:#CD128C"/>
		</linearGradient>
		<path style="fill-rule:evenodd;clip-rule:evenodd;fill:url(#SVGID_00000132060208001994373830000014632482994282480805_);" d="
			M78.94,338.86c21.24-2.08,42.13,6.47,55.72,22.83l12.36-12.28c-12.78-14.59-31.55-23.75-52.51-23.75
			c-30.39,0-56.26,19.36-65.8,46.43C38.89,353.37,57.7,340.94,78.94,338.86L78.94,338.86z"/>
		
			<linearGradient id="SVGID_00000148629858586653683250000003725135274296736926_" gradientUnits="userSpaceOnUse" x1="97.8385" y1="455.7925" x2="39.3126" y2="330.6376">
			<stop  offset="0" style="stop-color:#E1ADD0"/>
			<stop  offset="0.4926" style="stop-color:#8B3F98"/>
			<stop  offset="1" style="stop-color:#5D3393"/>
		</linearGradient>
		<path style="fill-rule:evenodd;clip-rule:evenodd;fill:url(#SVGID_00000148629858586653683250000003725135274296736926_);" d="
			M120.45,459.7c-33.9,3.39-60.9-30.03-60.9-64.56c0-8.28,2.9-15.9,7.72-21.87c-10.77,13.32-11.97,29.14-7.34,44.58
			C67.12,441.83,93.38,464.66,120.45,459.7L120.45,459.7z"/>
		
			<linearGradient id="SVGID_00000076573554627340434630000014378351247131244173_" gradientUnits="userSpaceOnUse" x1="159.8878" y1="417.2331" x2="70.2976" y2="430.2887">
			<stop  offset="0" style="stop-color:#4A71B7"/>
			<stop  offset="0.5265" style="stop-color:#3C58A8"/>
			<stop  offset="1" style="stop-color:#28276F"/>
		</linearGradient>
		<path style="fill-rule:evenodd;clip-rule:evenodd;fill:url(#SVGID_00000076573554627340434630000014378351247131244173_);" d="
			M59.55,395.14c0,34.53,26.99,67.95,60.9,64.56c-18.69,0.92-34.91-12.86-36.91-31.41C69.59,423.66,59.55,410.58,59.55,395.14
			L59.55,395.14z"/>
		
			<linearGradient id="SVGID_00000099633958352919741930000005832271235684929710_" gradientUnits="userSpaceOnUse" x1="100.2431" y1="403.9149" x2="113.7493" y2="421.8105">
			<stop  offset="0" style="stop-color:#8655A2"/>
			<stop  offset="0.4926" style="stop-color:#6053A3"/>
			<stop  offset="1" style="stop-color:#30469D"/>
		</linearGradient>
		<path style="fill-rule:evenodd;clip-rule:evenodd;fill:url(#SVGID_00000099633958352919741930000005832271235684929710_);" d="
			M102.38,423.63l4.29,4.23c6.26-2.31,11.66-6.35,15.68-11.55C116.28,420.2,109.48,422.66,102.38,423.63L102.38,423.63z"/>
		
			<linearGradient id="SVGID_00000096764911934822569620000004461806011405217939_" gradientUnits="userSpaceOnUse" x1="80.5888" y1="478.6651" x2="22.062" y2="353.5085">
			<stop  offset="0" style="stop-color:#DEA4CA"/>
			<stop  offset="0.4926" style="stop-color:#8B3F98"/>
			<stop  offset="1" style="stop-color:#5D3393"/>
		</linearGradient>
		<path style="fill-rule:evenodd;clip-rule:evenodd;fill:url(#SVGID_00000096764911934822569620000004461806011405217939_);" d="
			M61.52,434.21c-5.48,4.81-15.76,3.39-24.13-6.31c11.08,19.21,31.47,31.87,54.29,32.88C78.82,456.85,68.16,446.53,61.52,434.21
			L61.52,434.21z"/>
		
			<linearGradient id="SVGID_00000053531559295082558330000006185195165441190290_" gradientUnits="userSpaceOnUse" x1="152.1821" y1="432.7887" x2="62.5888" y2="445.8447">
			<stop  offset="0" style="stop-color:#5289C8"/>
			<stop  offset="0.5265" style="stop-color:#3C58A8"/>
			<stop  offset="1" style="stop-color:#28276F"/>
		</linearGradient>
		<path style="fill-rule:evenodd;clip-rule:evenodd;fill:url(#SVGID_00000053531559295082558330000006185195165441190290_);" d="
			M122.53,421.93c9.11,13.74,11.08,23.56,5.95,29.49c4.79-2.89,9.23-6.39,13.17-10.39L122.53,421.93z"/>
	</g>
</g>
</svg>
