<svg width="24" height="24" viewBox="0 0 24 24" fill="none" xmlns="http://www.w3.org/2000/svg">
<path fill-rule="evenodd" clip-rule="evenodd" d="M17.8565 2.99976H6.14449C3.85627 2.99976 2.00149 4.85454 2.00149 7.14276L2.00049 9.93249C2.00034 10.3468 2.33617 10.6828 2.75049 10.6828C3.60226 10.6828 4.23949 11.2856 4.23949 12.0848C4.23949 12.9095 3.57527 13.5738 2.75049 13.5738C2.33627 13.5738 2.00049 13.9095 2.00049 14.3238V17.0238C2.00049 19.3121 3.8544 21.1668 6.14249 21.1668H17.8575C20.1464 21.1668 22.0005 19.3123 22.0005 17.0238V14.3238C22.0005 13.9095 21.6647 13.5738 21.2505 13.5738C20.4248 13.5738 19.7605 12.9096 19.7605 12.0848C19.7605 11.3078 20.3486 10.6744 21.1065 10.6025L21.2505 10.5958C21.6649 10.5958 22.0008 10.2596 22.0005 9.8452L21.9985 7.1422C21.9985 4.85442 20.1446 2.99976 17.8565 2.99976ZM17.8565 4.49976L18.0236 4.50495C19.4052 4.59116 20.4985 5.73887 20.4985 7.14276L20.5002 9.19096L20.4005 9.21767C19.1617 9.58268 18.2605 10.726 18.2605 12.0848L18.2656 12.2606C18.3395 13.5409 19.2158 14.6025 20.4006 14.9518L20.5002 14.977L20.5005 17.0238C20.5005 18.4839 19.3179 19.6668 17.8575 19.6668H6.14249L5.97536 19.6616C4.59375 19.5753 3.50049 18.4276 3.50049 17.0238L3.50019 14.977L3.59997 14.9518C4.83817 14.5866 5.73949 13.4428 5.73949 12.0848L5.73446 11.9098C5.66098 10.6388 4.79024 9.62849 3.6032 9.29791L3.50019 9.27196L3.50149 7.14302C3.50149 5.68297 4.6847 4.49976 6.14449 4.49976H17.8565ZM10.4312 9.87796L8.877 10.1041L8.76643 10.1267C8.05166 10.3144 7.78938 11.2257 8.33779 11.7616L9.46319 12.858L9.19781 14.4083L9.18517 14.5154C9.13728 15.2553 9.92728 15.7886 10.6068 15.4343L11.9992 14.702L13.3909 15.4331L13.4889 15.4779C14.1788 15.7503 14.932 15.1664 14.8022 14.4086L14.5352 12.858L15.662 11.7628L15.7384 11.6796C16.2077 11.1078 15.8832 10.2167 15.126 10.1044L13.5682 9.87796L12.8715 8.46721C12.5169 7.74497 11.4874 7.74497 11.1294 8.46548L10.4312 9.87796ZM11.9992 10.09L12.3975 10.8953L12.4504 10.9858C12.5677 11.158 12.7527 11.275 12.9621 11.3054L13.8472 11.434L13.207 12.0587L13.137 12.137C13.0092 12.302 12.955 12.5144 12.9908 12.7232L13.1422 13.608L12.3491 13.1904L12.253 13.1482C12.0568 13.0779 11.8382 13.0919 11.6509 13.1904L10.8572 13.607L11.0092 12.7232L11.0197 12.6188C11.0259 12.4103 10.9449 12.2066 10.7932 12.0589L10.1522 11.434L11.038 11.3054C11.2822 11.2699 11.4932 11.1166 11.6025 10.8953L11.9992 10.09Z" fill="#200E32"/>
</svg>
