<svg width="18" height="18" viewBox="0 0 18 18" fill="none" xmlns="http://www.w3.org/2000/svg">
<path fill-rule="evenodd" clip-rule="evenodd" d="M12 1.5C12.3978 1.5 12.7794 1.65804 13.0607 1.93934C13.342 2.22064 13.5 2.60218 13.5 3C13.5 3.39782 13.342 3.77936 13.0607 4.06066C12.7794 4.34196 12.3978 4.5 12 4.5C11.6022 4.5 11.2206 4.34196 10.9393 4.06066C10.658 3.77936 10.5 3.39782 10.5 3C10.5 2.60218 10.658 2.22064 10.9393 1.93934C11.2206 1.65804 11.6022 1.5 12 1.5ZM12 7.5C12.3978 7.5 12.7794 7.65804 13.0607 7.93934C13.342 8.22064 13.5 8.60218 13.5 9C13.5 9.39782 13.342 9.77936 13.0607 10.0607C12.7794 10.342 12.3978 10.5 12 10.5C11.6022 10.5 11.2206 10.342 10.9393 10.0607C10.658 9.77936 10.5 9.39782 10.5 9C10.5 8.60218 10.658 8.22064 10.9393 7.93934C11.2206 7.65804 11.6022 7.5 12 7.5ZM6 13.5C6.39782 13.5 6.77936 13.658 7.06066 13.9393C7.34196 14.2206 7.5 14.6022 7.5 15C7.5 15.3978 7.34196 15.7794 7.06066 16.0607C6.77936 16.342 6.39782 16.5 6 16.5C5.60218 16.5 5.22064 16.342 4.93934 16.0607C4.65804 15.7794 4.5 15.3978 4.5 15C4.5 14.6022 4.65804 14.2206 4.93934 13.9393C5.22064 13.658 5.60218 13.5 6 13.5ZM12 13.5C12.3978 13.5 12.7794 13.658 13.0607 13.9393C13.342 14.2206 13.5 14.6022 13.5 15C13.5 15.3978 13.342 15.7794 13.0607 16.0607C12.7794 16.342 12.3978 16.5 12 16.5C11.6022 16.5 11.2206 16.342 10.9393 16.0607C10.658 15.7794 10.5 15.3978 10.5 15C10.5 14.6022 10.658 14.2206 10.9393 13.9393C11.2206 13.658 11.6022 13.5 12 13.5ZM6 1.5C6.39782 1.5 6.77936 1.65804 7.06066 1.93934C7.34196 2.22064 7.5 2.60218 7.5 3C7.5 3.39782 7.34196 3.77936 7.06066 4.06066C6.77936 4.34196 6.39782 4.5 6 4.5C5.60218 4.5 5.22064 4.34196 4.93934 4.06066C4.65804 3.77936 4.5 3.39782 4.5 3C4.5 2.60218 4.65804 2.22064 4.93934 1.93934C5.22064 1.65804 5.60218 1.5 6 1.5ZM6 7.5C6.39782 7.5 6.77936 7.65804 7.06066 7.93934C7.34196 8.22064 7.5 8.60218 7.5 9C7.5 9.39782 7.34196 9.77936 7.06066 10.0607C6.77936 10.342 6.39782 10.5 6 10.5C5.60218 10.5 5.22064 10.342 4.93934 10.0607C4.65804 9.77936 4.5 9.39782 4.5 9C4.5 8.60218 4.65804 8.22064 4.93934 7.93934C5.22064 7.65804 5.60218 7.5 6 7.5Z" fill="#858592"/>
</svg>
