<svg width="13" height="13" viewBox="0 0 13 13" fill="none" xmlns="http://www.w3.org/2000/svg">
<path fill-rule="evenodd" clip-rule="evenodd" d="M8.94724 3.28242C8.88703 1.98287 7.81459 0.947777 6.50049 0.947777C5.15408 0.941982 4.05556 2.02541 4.04144 3.37136H3.9313C2.43304 3.37136 1.21875 4.58496 1.21875 6.0824V9.07023C1.21875 10.5677 2.43304 11.7813 3.9313 11.7813H9.0687C10.567 11.7813 11.7812 10.5677 11.7812 9.07023V6.0824C11.7812 4.58496 10.567 3.37136 9.0687 3.37136H8.94929L8.94724 3.28242ZM8.1374 4.18386V5.04009L8.14111 5.09521C8.16801 5.2935 8.33799 5.44634 8.54365 5.44634C8.76802 5.44634 8.9499 5.26445 8.9499 5.04009V4.18386H9.0687C10.1183 4.18386 10.9688 5.03379 10.9688 6.0824V9.07023C10.9688 10.1188 10.1183 10.9688 9.0687 10.9688H3.9313C2.88167 10.9688 2.03125 10.1188 2.03125 9.07023V6.0824C2.03125 5.03379 2.88167 4.18386 3.9313 4.18386H4.04132L4.04132 5.04009L4.04503 5.09521C4.07193 5.2935 4.2419 5.44634 4.44757 5.44634C4.67194 5.44634 4.85382 5.26445 4.85382 5.04009V4.18386H8.1374ZM8.1372 3.37136C8.1231 2.47913 7.39565 1.76028 6.49874 1.76027C5.62638 1.75652 4.91053 2.43484 4.85702 3.29253L4.85439 3.37136H8.1372Z" fill="#858592"/>
</svg>
