<svg width="209" height="138" viewBox="0 0 209 138" fill="none" xmlns="http://www.w3.org/2000/svg">
<path d="M62 45.3757C56 48.875 52 64.8757 52 64.8757C52 64.8757 53.5404 77.5569 59.5 81.3757C65.4186 85.1682 70.7242 79.5044 77.5 81.3757C87.6706 84.1845 88.2982 95.6823 98.5 98.3757C109.054 101.162 115.102 92.7633 126 93.3757C142.667 94.3122 148.5 113.411 165 110.876C183.151 108.087 189.784 93.7994 198 77.3757C207.99 57.4058 213.539 39.7851 202.5 20.3757C198.195 12.806 195.098 8.13029 187.5 3.87567C173.988 -3.69036 162.156 1.09694 148 7.37567C138.183 11.7299 136.739 23.9347 126 23.8757C121.119 23.8489 118.872 20.6767 114 20.3757C107.806 19.993 104.169 21.3527 98.5 23.8757C87.777 28.6476 88.8277 42.3035 77.5 45.3757C71.6579 46.9601 68 41.8764 62 45.3757Z" fill="#2196F3" fill-opacity="0.2"/>
<path d="M91 137.875C140.153 137.875 180 132.726 180 126.375C180 120.024 140.153 114.875 91 114.875C41.8467 114.875 2 120.024 2 126.375C2 132.726 41.8467 137.875 91 137.875Z" fill="#4B4B4B" fill-opacity="0.28"/>
<path d="M164.426 103.729L164.294 103.56L164.163 103.39L164.034 103.219L163.906 103.047C163.835 101.392 163.835 99.7515 163.906 98.1255C163.973 96.5108 164.109 94.9158 164.316 93.3405C164.516 91.7765 164.785 90.2368 165.123 88.7214C165.456 87.2174 165.853 85.7418 166.312 84.2944C166.365 84.1278 166.418 83.9611 166.472 83.7944C166.526 83.6278 166.581 83.4635 166.638 83.3015C166.694 83.1375 166.751 82.9741 166.809 82.8114C166.867 82.6488 166.926 82.4868 166.986 82.3254C167.429 81.1168 167.917 79.9381 168.449 78.7895C168.981 77.6408 169.552 76.5311 170.162 75.4604C170.771 74.3898 171.42 73.3521 172.109 72.3474C172.798 71.3428 173.521 70.3804 174.276 69.4604L174.396 69.3145L174.516 69.1694L174.637 69.0255L174.758 68.8824L174.845 68.7824L174.933 68.6824L175.022 68.5825L175.113 68.4825L175.185 68.4424L175.257 68.4034L175.329 68.3644L175.4 68.3254L175.429 68.3094L175.457 68.2935L175.485 68.2774L175.512 68.2614L175.636 68.1945L175.76 68.1284L175.884 68.0634L176.007 67.9974L175.913 67.9504L175.678 67.8334L175.738 67.8604L175.798 67.8885L175.858 67.9164L175.918 67.9454L175.941 67.9554L175.964 67.9655L175.987 67.9754L176.01 67.9865L176.03 67.9955L176.05 68.0045L176.07 68.0135L176.09 68.0224C176.947 68.4154 177.806 68.8135 178.654 69.2325C179.502 69.6515 180.337 70.0865 181.154 70.5555C181.964 71.0209 182.749 71.5286 183.506 72.0764C184.261 72.6214 184.976 73.2203 185.644 73.8684C186.349 74.5576 186.98 75.3192 187.526 76.1404C188.069 76.9428 188.516 77.8056 188.859 78.7115C189.185 79.5775 189.38 80.4876 189.436 81.4114C189.49 82.2999 189.365 83.1902 189.069 84.0294C189.029 84.1388 188.986 84.2468 188.939 84.3535C188.892 84.4601 188.843 84.5648 188.791 84.6674C188.738 84.7708 188.683 84.8708 188.624 84.9674C188.565 85.0641 188.504 85.1618 188.439 85.2604C188.412 85.3004 188.385 85.3401 188.356 85.3795L188.271 85.4964L188.183 85.6115L188.093 85.7254C187.532 86.431 186.819 87.0009 186.007 87.3925C185.191 87.7827 184.303 88.0028 183.399 88.0395C182.449 88.0793 181.499 87.9417 180.599 87.6335C179.634 87.3041 178.737 86.8012 177.953 86.1494C177.682 85.9256 177.425 85.6851 177.184 85.4294C176.945 85.1768 176.722 84.9097 176.516 84.6295C176.312 84.3508 176.126 84.0596 175.958 83.7574C175.792 83.4576 175.646 83.1472 175.52 82.8284C175.461 83.8188 175.615 84.8104 175.971 85.7365C176.347 86.7102 176.858 87.6262 177.489 88.4575C178.156 89.3425 178.895 90.17 179.7 90.9315C180.51 91.7085 181.371 92.4365 182.221 93.1075C183.071 93.7785 183.951 94.4644 184.803 95.1794C185.654 95.8829 186.465 96.6344 187.23 97.4305C187.972 98.1993 188.629 99.0467 189.188 99.9575C189.738 100.856 190.135 101.84 190.364 102.868C190.61 103.99 190.597 105.152 190.328 106.268C190.197 106.811 190.011 107.338 189.772 107.842C189.531 108.351 189.243 108.835 188.911 109.288L188.88 109.33L188.849 109.371L188.817 109.412L188.785 109.453C187.974 110.514 186.956 111.399 185.793 112.053C185.207 112.381 184.59 112.649 183.951 112.853C183.297 113.064 182.623 113.209 181.94 113.286C180.64 113.406 179.33 113.331 178.052 113.063C176.737 112.788 175.458 112.36 174.241 111.788C172.983 111.2 171.781 110.499 170.649 109.695C169.507 108.887 168.426 107.996 167.414 107.029C167.147 106.773 166.883 106.512 166.622 106.246C166.361 105.98 166.106 105.71 165.859 105.436C165.61 105.162 165.366 104.883 165.127 104.6C164.888 104.318 164.655 104.027 164.426 103.729Z" fill="#06C487" fill-opacity="0.4"/>
<path d="M185.321 84.5524C184.518 84.1355 183.746 83.6617 183.01 83.1344C181.54 82.0816 180.227 80.8258 179.11 79.4044C178.557 78.6992 178.055 77.9545 177.61 77.1764C177.238 76.5188 176.908 75.8385 176.622 75.1394C176.344 74.4576 176.11 73.7584 175.922 73.0464C175.737 72.3508 175.6 71.6435 175.51 70.9294C175.422 70.23 175.384 69.5252 175.395 68.8204C175.395 68.7804 175.395 68.7411 175.395 68.7024C175.395 68.6637 175.395 68.6244 175.395 68.5844C175.395 68.5444 175.395 68.5051 175.395 68.4664L175.401 68.3494L175.301 68.4304L175.201 68.5124L175.101 68.5944L175.001 68.6774L174.937 68.7304L174.873 68.7834L174.809 68.8374L174.746 68.8914L174.833 68.7914L174.923 68.6854L175.012 68.5854L175.103 68.4854L175.175 68.4454L175.247 68.4064L175.317 68.3674L175.388 68.3284L175.417 68.3124L175.446 68.2964L175.474 68.2804L175.501 68.2644L175.625 68.1974L175.749 68.1314L175.873 68.0664L175.997 68.0004L175.897 67.9524L175.662 67.8354L175.722 67.8624L175.782 67.8904L175.842 67.9184L175.901 67.9474L175.924 67.9574L175.947 67.9674L175.97 67.9774L175.992 67.9884V68.0254V68.0604V68.0954V68.1304C175.905 69.3178 175.967 70.5114 176.176 71.6834C176.391 72.8898 176.744 74.0675 177.228 75.1934C177.728 76.3576 178.353 77.4641 179.092 78.4934C179.856 79.5596 180.731 80.5414 181.702 81.4224C182.68 82.298 183.746 83.0689 184.884 83.7224C185.446 84.0445 186.025 84.3366 186.618 84.5974C187.205 84.8555 187.806 85.0814 188.418 85.2744C188.391 85.3144 188.364 85.3541 188.335 85.3934L188.25 85.5104L188.162 85.6254L188.072 85.7394C187.836 85.6614 187.603 85.5781 187.372 85.4894C187.141 85.4007 186.908 85.3077 186.672 85.2104C186.441 85.1124 186.211 85.0097 185.983 84.9024C185.755 84.7951 185.534 84.6784 185.321 84.5524Z" fill="white"/>
<path d="M169.422 93.4265C169.158 93.0338 168.91 92.6338 168.677 92.2265C168.443 91.8192 168.225 91.4062 168.022 90.9875C167.822 90.5689 167.635 90.1448 167.46 89.7155C167.285 89.2862 167.13 88.8529 166.993 88.4155C166.922 88.1842 166.855 87.9508 166.793 87.7155C166.731 87.4802 166.676 87.2468 166.629 87.0155C166.58 86.7815 166.537 86.5482 166.499 86.3155C166.461 86.0828 166.427 85.8495 166.399 85.6155C166.385 85.5062 166.374 85.3965 166.363 85.2865C166.352 85.1765 166.343 85.0669 166.335 84.9575C166.327 84.8475 166.32 84.7379 166.314 84.6285C166.308 84.5192 166.303 84.4099 166.3 84.3005C166.352 84.1339 166.406 83.9672 166.46 83.8005C166.514 83.6339 166.569 83.4689 166.626 83.3055C166.682 83.1415 166.739 82.9782 166.797 82.8155C166.855 82.6528 166.914 82.4909 166.974 82.3295C166.96 82.4629 166.949 82.5985 166.94 82.7365C166.93 82.8745 166.923 83.0108 166.918 83.1455C166.913 83.2822 166.909 83.4192 166.907 83.5565C166.905 83.6939 166.905 83.8315 166.907 83.9695C166.907 84.0449 166.907 84.1202 166.907 84.1955C166.907 84.2708 166.909 84.3462 166.913 84.4215C166.913 84.4968 166.916 84.5722 166.923 84.6475C166.93 84.7229 166.934 84.7982 166.936 84.8735C166.995 85.717 167.129 86.5536 167.336 87.3735C167.544 88.2041 167.815 89.0175 168.148 89.8065C168.486 90.6107 168.877 91.392 169.317 92.1455C169.764 92.9121 170.253 93.6536 170.782 94.3665C171.351 95.1365 171.951 95.8858 172.582 96.6145C173.213 97.3432 173.871 98.0525 174.556 98.7425C175.239 99.4312 175.942 100.098 176.665 100.742C177.388 101.387 178.123 102.011 178.87 102.614C179.634 103.231 180.415 103.825 181.211 104.396C182.007 104.966 182.816 105.511 183.638 106.031C184.459 106.551 185.292 107.047 186.138 107.517C186.983 107.987 187.839 108.429 188.706 108.845C188.746 108.864 188.782 108.89 188.812 108.923C188.842 108.954 188.866 108.991 188.883 109.031C188.9 109.07 188.91 109.112 188.913 109.155C188.915 109.198 188.91 109.241 188.896 109.281C188.892 109.299 188.885 109.316 188.878 109.333C188.87 109.348 188.861 109.363 188.85 109.378C188.829 109.406 188.802 109.429 188.771 109.445C188.755 109.453 188.737 109.458 188.72 109.462C188.702 109.464 188.684 109.464 188.667 109.462C188.648 109.46 188.63 109.457 188.613 109.452C188.595 109.446 188.577 109.439 188.561 109.43L188.24 109.276L187.92 109.12L187.601 108.961L187.283 108.799C186.401 108.345 185.53 107.865 184.672 107.358C183.813 106.85 182.967 106.317 182.135 105.758C181.302 105.198 180.485 104.612 179.683 104.002C178.881 103.391 178.096 102.758 177.327 102.102C176.585 101.467 175.852 100.811 175.137 100.133C174.422 99.4545 173.724 98.7545 173.053 98.0325C172.382 97.3105 171.737 96.5655 171.126 95.7985C170.515 95.0315 169.954 94.2375 169.422 93.4265Z" fill="white"/>
<path d="M186.042 30.3948L185.41 30.4768L189.646 14.5768C189.958 13.515 190.009 12.3934 189.794 11.3078C189.607 10.4218 189.146 9.61711 188.476 9.00777C187.774 8.39752 186.914 7.99815 185.995 7.85576C184.875 7.68254 183.733 7.73387 182.633 8.00676V8.00676L153.842 14.5618C152.837 14.8055 151.875 15.201 150.99 15.7348C150.027 16.3076 149.131 16.9869 148.32 17.7598C147.485 18.5477 146.736 19.4215 146.084 20.3668C145.448 21.2818 144.929 22.2732 144.54 23.3178V23.3178L114.416 106.174C113.915 107.536 113.59 108.957 113.448 110.402C113.316 111.684 113.379 112.979 113.633 114.243C113.845 115.341 114.288 116.382 114.933 117.296C115.524 118.127 116.357 118.755 117.319 119.096V119.096L147.739 129.568C149.091 130.028 150.542 130.115 151.939 129.818C153.432 129.492 154.836 128.846 156.053 127.923C157.42 126.896 158.596 125.636 159.526 124.201C160.556 122.624 161.326 120.892 161.806 119.071V119.071L182.2 42.5288L182.84 42.4778L186.042 30.3948Z" fill="#2F2E41"/>
<path d="M183.842 29.5144L183.21 29.5964L187.446 13.6964C187.758 12.6346 187.809 11.513 187.594 10.4274C187.407 9.54142 186.945 8.73678 186.276 8.1274C185.574 7.51715 184.714 7.11778 183.795 6.97539C182.675 6.80217 181.532 6.8535 180.433 7.12639V7.12639L151.642 13.6814C150.637 13.9251 149.675 14.3206 148.79 14.8544C147.827 15.4272 146.931 16.1065 146.12 16.8794C145.285 17.6673 144.535 18.5412 143.884 19.4864C143.247 20.4014 142.729 21.3929 142.34 22.4374V22.4374L112.216 105.293C111.715 106.656 111.39 108.077 111.248 109.521C111.116 110.804 111.178 112.099 111.433 113.362C111.645 114.461 112.088 115.501 112.733 116.415C113.324 117.246 114.157 117.875 115.119 118.215V118.215L145.539 128.687C146.891 129.148 148.342 129.234 149.739 128.937C151.231 128.612 152.635 127.965 153.853 127.042C155.22 126.015 156.395 124.755 157.326 123.32C158.356 121.744 159.126 120.012 159.606 118.19V118.19L180 41.6484L180.64 41.5974L183.842 29.5144Z" fill="#3F3D56"/>
<path d="M180.176 9.19931L175.944 10.1263C175.99 10.4924 175.953 10.8642 175.837 11.2143C175.705 11.624 175.513 12.0122 175.269 12.3663C174.719 13.1704 173.984 13.8314 173.127 14.2943C173.024 14.349 172.922 14.3993 172.82 14.4453C172.718 14.4913 172.616 14.5333 172.514 14.5713C172.412 14.6093 172.312 14.6426 172.214 14.6713C172.115 14.7 172.015 14.7243 171.914 14.7443L155.367 18.0953C155.06 18.1665 154.74 18.1627 154.435 18.0843C154.189 18.0183 153.972 17.8723 153.819 17.6693C153.664 17.4512 153.577 17.1925 153.568 16.9253C153.555 16.5848 153.609 16.2452 153.727 15.9253C153.756 15.8386 153.789 15.7516 153.827 15.6643C153.864 15.577 153.905 15.4893 153.95 15.4013C153.994 15.3133 154.042 15.2257 154.094 15.1383C154.146 15.051 154.201 14.964 154.259 14.8773L151.126 15.5633C150.371 15.7402 149.648 16.0327 148.983 16.4303C148.256 16.8584 147.58 17.3677 146.968 17.9483C146.337 18.5418 145.771 19.2009 145.28 19.9143C144.801 20.6035 144.411 21.3509 144.121 22.1383L114.053 105.714C113.679 106.741 113.439 107.812 113.339 108.9C113.246 109.861 113.301 110.83 113.501 111.774C113.668 112.59 114.009 113.361 114.501 114.033C114.952 114.644 115.58 115.1 116.301 115.339L146.945 125.295C147.956 125.619 149.035 125.668 150.071 125.435C151.174 125.183 152.21 124.696 153.11 124.009C154.116 123.247 154.982 122.317 155.67 121.258C156.431 120.096 157.002 118.82 157.362 117.478L185.362 14.1593C185.597 13.3706 185.64 12.5372 185.489 11.7283C185.357 11.0655 185.022 10.4604 184.53 9.99732C184.014 9.5342 183.377 9.22727 182.694 9.11232C181.857 8.97148 181.001 9.00106 180.176 9.19931Z" fill="#2196F3"/>
<path d="M51.419 126.106L49.583 126.36L48.355 124.243L50.293 123.975L51.419 126.106Z" fill="#333333"/>
<path d="M22.8619 127.771L22.2539 130.141L20.4189 130.395L20.9249 128.039L22.8619 127.771Z" fill="#333333"/>
<path d="M27.7649 96.3517L35.121 95.4387L50.2929 124.004L48.3549 124.272L32.7969 97.4227C32.4409 97.5579 32.0682 97.6444 31.6889 97.6797C31.2809 97.7357 30.8589 97.6907 30.5529 97.7327L22.8619 127.792L20.924 128.06L27.7649 96.3517Z" fill="#979797"/>
<path d="M28.9729 90.0477L32.1339 89.6107L36.4249 125.911L34.6919 126.151L28.9729 90.0477Z" fill="#979797"/>
<path d="M36.4259 125.894L36.6339 128.152L35.1039 128.363L34.6919 126.134L36.4259 125.894Z" fill="#333333"/>
<path d="M31.7889 98.3717C30.7604 98.5138 29.7128 98.3477 28.7786 97.8944C27.8445 97.4412 27.0657 96.7211 26.5408 95.8253C26.0158 94.9294 25.7683 93.898 25.8296 92.8615C25.8908 91.825 26.258 90.8299 26.8847 90.0021C27.5115 89.1743 28.3696 88.5509 29.3506 88.2108C30.3317 87.8706 31.3915 87.829 32.3962 88.0912C33.4008 88.3534 34.3052 88.9076 34.9949 89.6838C35.6846 90.4599 36.1286 91.4232 36.2709 92.4517C36.3654 93.1347 36.3244 93.8296 36.1503 94.4968C35.9762 95.164 35.6723 95.7903 35.2561 96.3401C34.8399 96.8898 34.3195 97.3522 33.7246 97.7007C33.1297 98.0493 32.4719 98.2773 31.7889 98.3717Z" fill="#333333"/>
<path d="M31.6069 97.0586C30.8405 97.1647 30.0598 97.0411 29.3637 96.7034C28.6675 96.3658 28.0871 95.8293 27.6958 95.1617C27.3046 94.4942 27.1201 93.7257 27.1656 92.9533C27.2111 92.1809 27.4847 91.4394 27.9517 90.8225C28.4187 90.2055 29.0581 89.741 29.7891 89.4875C30.5202 89.234 31.3099 89.2029 32.0586 89.3983C32.8072 89.5937 33.4812 90.0067 33.9951 90.585C34.509 91.1634 34.8399 91.8812 34.9459 92.6476C35.0881 93.6753 34.8161 94.7174 34.1899 95.5446C33.5638 96.3719 32.6346 96.9165 31.6069 97.0586Z" fill="white"/>
<path d="M33.971 69.8026C34.0479 69.7649 34.1315 69.7428 34.217 69.7375C34.3025 69.7321 34.3882 69.7437 34.4693 69.7716C34.5503 69.7995 34.625 69.8431 34.6891 69.8999C34.7532 69.9567 34.8055 70.0256 34.843 70.1026L36.786 75.1346C36.8259 75.2182 36.8471 75.3094 36.8481 75.402C36.8491 75.4945 36.8299 75.5862 36.7918 75.6706C36.7537 75.7549 36.6977 75.83 36.6276 75.8904C36.5575 75.9509 36.475 75.9953 36.386 76.0206L26.399 79.6836C26.2281 79.7424 26.0413 79.7337 25.8766 79.6594C25.712 79.585 25.5819 79.4506 25.513 79.2836L24.102 75.8476C24.0604 75.7579 24.0374 75.6607 24.0342 75.5618C24.031 75.463 24.0478 75.3645 24.0836 75.2723C24.1193 75.18 24.1733 75.096 24.2423 75.0251C24.3112 74.9542 24.3938 74.8979 24.485 74.8596L33.971 69.8066" fill="#333333"/>
<path d="M35.9339 83.2497C36.0269 83.1899 36.1322 83.1519 36.2419 83.1384C36.3517 83.1249 36.463 83.1363 36.5678 83.1717C36.6725 83.2072 36.7679 83.2658 36.8468 83.3431C36.9258 83.4205 36.9863 83.5147 37.0239 83.6187L39.5859 90.1187C39.6666 90.3272 39.6626 90.5591 39.5745 90.7646C39.4865 90.9702 39.3215 91.1332 39.1149 91.2187L26.2519 95.9157C26.0154 95.9903 25.7597 95.9745 25.5342 95.8712C25.3088 95.7679 25.1298 95.5845 25.0319 95.3567L23.2759 90.9227C23.1917 90.7005 23.1917 90.4552 23.2759 90.2331C23.3601 90.0109 23.5226 89.8272 23.7329 89.7167L35.9339 83.2497Z" fill="#333333"/>
<path d="M18.1609 83.2267L22.5909 94.2527L4.26092 101.464L0.471924 92.1147L18.1609 83.2267Z" fill="#2196F3"/>
<path d="M3.55798 85.8617C3.67478 85.8182 3.79902 85.7981 3.92358 85.8026C4.04815 85.8072 4.17059 85.8362 4.28391 85.8882C4.39723 85.9401 4.49919 86.0138 4.58397 86.1052C4.66875 86.1966 4.73468 86.3038 4.77798 86.4207L6.53398 90.8547C6.57728 90.9716 6.64321 91.0788 6.72798 91.1701C6.81276 91.2615 6.91473 91.3353 7.02805 91.3872C7.14137 91.4391 7.26381 91.4682 7.38838 91.4727C7.51294 91.4773 7.63718 91.4572 7.75398 91.4137L10.933 90.3507C11.1816 90.2599 11.4552 90.2655 11.6999 90.3664C11.9445 90.4672 12.1426 90.6561 12.255 90.8957L12.962 92.2527C13.0253 92.3592 13.0639 92.4787 13.0746 92.6022C13.0854 92.7256 13.0682 92.85 13.0243 92.9659C12.9804 93.0818 12.9109 93.1863 12.821 93.2716C12.731 93.357 12.623 93.4209 12.505 93.4587L5.98698 95.9217C5.87018 95.9652 5.74594 95.9853 5.62138 95.9807C5.49681 95.9762 5.37437 95.9471 5.26105 95.8952C5.14773 95.8433 5.04576 95.7695 4.96098 95.6781C4.87621 95.5868 4.81028 95.4796 4.76698 95.3627L1.81798 87.5627C1.77445 87.4459 1.75439 87.3216 1.75893 87.1971C1.76348 87.0725 1.79254 86.9501 1.84446 86.8367C1.89638 86.7234 1.97014 86.6215 2.06152 86.5367C2.1529 86.4519 2.26009 86.386 2.37698 86.3427L3.55798 85.8677" fill="#333333"/>
<path d="M24 95.3802L55.167 83.1657L48.394 66.4427L18.5 81.3802L20 88.8802L24 95.3802Z" fill="#2196F3"/>
<path d="M23 95.9999L44.5 87.4999C44.5 87.4999 40.1716 83.1241 39 79.9999C37.8284 76.8757 38.5 71.4999 38.5 71.4999L18 81.4999L19.0227 88.4859L23 95.9999Z" fill="#FCFEFF" fill-opacity="0.15"/>
<path d="M22.5 95.9999L37.5 89.9999C37.5 89.9999 33.0599 84.6879 32.2642 81.4999C31.4684 78.312 32.2642 74.9999 32.2642 74.9999L18 81.4999L18.6947 88.3326L22.5 95.9999Z" fill="#FCFEFF" fill-opacity="0.15"/>
<path d="M17.5379 81.7497L19.6689 80.6237C18.5019 81.2007 18.8049 84.8997 20.3749 88.7357C21.9449 92.5717 24.2169 95.4797 25.3989 95.0037L23.2259 95.8237C22.0589 96.4007 19.7999 93.5957 18.2259 89.7597C16.6419 85.8217 16.3669 82.3257 17.5339 81.7487" fill="#333333"/>
<path d="M48.9 65.0517L51.835 63.7077C53.396 62.9727 56.393 66.6077 58.466 71.8327C60.539 77.0577 60.881 81.7877 59.32 82.5227L56.49 83.8497C54.929 84.5847 51.932 80.9497 49.859 75.7247C47.786 70.4997 47.335 65.7867 48.9 65.0517Z" fill="#333333"/>
<path d="M52.6869 74.4087C50.9449 70.0767 50.3809 65.9976 51.2029 64.4286C52.9189 64.8146 55.3499 68.1167 57.1029 72.5497C58.8449 76.8816 59.4089 80.9607 58.5869 82.5287C56.8709 82.1427 54.4399 78.8407 52.6869 74.4076" fill="#FFD705"/>
<path d="M0.471925 92.1186L2.12092 91.2676C1.33292 91.5846 1.37992 94.1756 2.45992 96.7286C3.53992 99.2816 5.14892 101.133 5.93592 100.821L4.25892 101.468C3.47092 101.785 1.97992 100.016 0.898925 97.4676C-0.0790753 94.9006 -0.316075 92.4396 0.471925 92.1226" fill="#333333"/>
<path d="M15.1009 88.9507C14.9195 88.9756 14.7348 88.9462 14.5701 88.8662C14.4054 88.7862 14.2682 88.6592 14.1756 88.5012C14.0831 88.3433 14.0395 88.1614 14.0503 87.9786C14.0611 87.7959 14.1259 87.6204 14.2364 87.4744C14.3469 87.3284 14.4982 87.2185 14.6711 87.1585C14.8441 87.0985 15.031 87.0911 15.2081 87.1372C15.3853 87.1834 15.5448 87.281 15.6665 87.4178C15.7882 87.5545 15.8666 87.7243 15.8919 87.9057C15.9086 88.0262 15.9015 88.1489 15.8708 88.2667C15.8401 88.3845 15.7865 88.4951 15.713 88.5922C15.6396 88.6892 15.5477 88.7709 15.4426 88.8324C15.3376 88.8939 15.2215 88.9341 15.1009 88.9507V88.9507Z" fill="#333333"/>
<rect x="112.091" y="45.6375" width="55.9946" height="19.3925" transform="rotate(0.661082 112.091 45.6375)" stroke="#E93651" stroke-width="0.5" stroke-dasharray="3 3"/>
<rect x="94.4767" y="54.9832" width="55.9946" height="19.3925" transform="rotate(0.661082 94.4767 54.9832)" stroke="#06C487" stroke-width="0.5" stroke-dasharray="3 3"/>
<rect x="119.439" y="42.2892" width="35.0108" height="6.76344" transform="rotate(0.661082 119.439 42.2892)" fill="#E8E8E8"/>
<path fill-rule="evenodd" clip-rule="evenodd" d="M150.645 44.6357C149.876 44.6268 149.246 45.243 149.237 46.012C149.228 46.781 149.844 47.4116 150.613 47.4205C151.382 47.4293 152.013 46.8131 152.022 46.0441C152.031 45.2752 151.414 44.6446 150.645 44.6357ZM151.236 45.7996C151.247 45.787 151.256 45.7723 151.261 45.7564C151.266 45.7404 151.269 45.7235 151.268 45.7067C151.266 45.6898 151.262 45.6734 151.254 45.6583C151.247 45.6432 151.236 45.6298 151.223 45.6188C151.211 45.6079 151.196 45.5996 151.18 45.5945C151.164 45.5894 151.147 45.5876 151.13 45.5891C151.113 45.5906 151.097 45.5955 151.082 45.6035C151.067 45.6114 151.054 45.6222 151.043 45.6353L150.491 46.2821L150.213 45.9971C150.189 45.9737 150.157 45.9606 150.124 45.9605C150.091 45.9604 150.059 45.9734 150.035 45.9966C150.012 46.0198 149.998 46.0514 149.997 46.0845C149.997 46.1177 150.009 46.1498 150.032 46.174L150.407 46.5581C150.419 46.5707 150.434 46.5806 150.451 46.5871C150.467 46.5936 150.484 46.5967 150.502 46.5961C150.52 46.5955 150.537 46.5913 150.553 46.5836C150.568 46.576 150.583 46.5652 150.594 46.5518L151.236 45.7996Z" fill="#2196F3"/>
<path d="M122.197 44.7083L144.429 44.9648M122.175 46.594L136.173 46.7555" stroke="#BEBEBE" stroke-linecap="round" stroke-linejoin="round"/>
<rect x="119.228" y="60.5854" width="35.0108" height="6.76344" transform="rotate(0.661082 119.228 60.5854)" fill="#E8E8E8"/>
<path fill-rule="evenodd" clip-rule="evenodd" d="M150.434 62.9362C149.665 62.9273 149.035 63.5435 149.026 64.3125C149.017 65.0815 149.633 65.7121 150.402 65.7209C151.171 65.7298 151.802 65.1136 151.811 64.3446C151.82 63.5756 151.203 62.945 150.434 62.9362ZM151.025 64.1001C151.036 64.0875 151.044 64.0728 151.05 64.0568C151.055 64.0409 151.058 64.024 151.057 64.0071C151.055 63.9903 151.051 63.9739 151.043 63.9588C151.036 63.9437 151.025 63.9303 151.012 63.9193C151 63.9084 150.985 63.9001 150.969 63.895C150.952 63.8899 150.936 63.888 150.919 63.8896C150.902 63.8911 150.886 63.896 150.871 63.9039C150.856 63.9119 150.843 63.9227 150.832 63.9358L150.28 64.5826L150.002 64.2975C149.978 64.2742 149.946 64.2611 149.913 64.261C149.88 64.2609 149.848 64.2738 149.824 64.297C149.801 64.3202 149.787 64.3518 149.786 64.385C149.786 64.4182 149.798 64.4503 149.821 64.4745L150.196 64.8586C150.208 64.8712 150.223 64.881 150.239 64.8876C150.256 64.8941 150.273 64.8972 150.291 64.8966C150.308 64.896 150.326 64.8918 150.342 64.8841C150.357 64.8765 150.371 64.8656 150.383 64.8523L151.025 64.1001Z" fill="#2196F3"/>
<path d="M121.985 63.0045L144.218 63.261M121.964 64.8902L135.962 65.0517" stroke="#BEBEBE" stroke-linecap="round" stroke-linejoin="round"/>
<rect x="124.505" y="51.5009" width="35.0108" height="6.76344" transform="rotate(0.661082 124.505 51.5009)" fill="#E8E8E8"/>
<path fill-rule="evenodd" clip-rule="evenodd" d="M155.711 53.8495C154.942 53.8406 154.312 54.4568 154.303 55.2258C154.294 55.9948 154.91 56.6254 155.679 56.6343C156.448 56.6431 157.079 56.0269 157.088 55.2579C157.097 54.489 156.48 53.8584 155.711 53.8495ZM156.302 55.0134C156.313 55.0008 156.322 54.9861 156.327 54.9702C156.333 54.9542 156.335 54.9373 156.334 54.9205C156.333 54.9036 156.328 54.8872 156.32 54.8721C156.313 54.857 156.302 54.8436 156.29 54.8327C156.277 54.8217 156.262 54.8134 156.246 54.8083C156.23 54.8032 156.213 54.8014 156.196 54.8029C156.179 54.8044 156.163 54.8093 156.148 54.8173C156.133 54.8252 156.12 54.836 156.109 54.8491L155.557 55.4959L155.279 55.2109C155.255 55.1875 155.223 55.1744 155.19 55.1743C155.157 55.1742 155.125 55.1872 155.101 55.2104C155.078 55.2336 155.064 55.2652 155.063 55.2983C155.063 55.3315 155.075 55.3636 155.098 55.3878L155.473 55.7719C155.485 55.7845 155.5 55.7944 155.517 55.8009C155.533 55.8074 155.55 55.8105 155.568 55.8099C155.586 55.8093 155.603 55.8051 155.619 55.7974C155.635 55.7898 155.649 55.779 155.66 55.7656L156.302 55.0134Z" fill="#E93651"/>
<path d="M127.263 53.92L149.495 54.1765M127.241 55.8057L141.239 55.9672" stroke="#BEBEBE" stroke-linecap="round" stroke-linejoin="round"/>
<path d="M123.537 105.498L121.421 104.885L120.61 106.029L119.623 105.744L123.268 100.877L124.119 101.124L124.606 107.185L123.616 106.899L123.537 105.498ZM121.909 104.197L123.492 104.655L123.356 102.16L121.909 104.197ZM125.566 105.231C125.747 104.605 126.038 104.146 126.437 103.852C126.837 103.556 127.281 103.478 127.769 103.619C128.199 103.744 128.504 103.994 128.682 104.371L129.283 102.292L130.195 102.556L128.528 108.32L127.702 108.081L127.779 107.648C127.411 107.899 126.999 107.959 126.544 107.827C126.068 107.69 125.738 107.387 125.554 106.919C125.372 106.451 125.376 105.889 125.566 105.231ZM126.455 105.573C126.336 105.986 126.321 106.331 126.412 106.61C126.505 106.886 126.698 107.067 126.991 107.151C127.364 107.259 127.685 107.172 127.953 106.889L128.455 105.155C128.381 104.782 128.158 104.541 127.786 104.433C127.49 104.348 127.229 104.399 127.001 104.588C126.773 104.775 126.591 105.103 126.455 105.573ZM129.904 106.485C130.085 105.86 130.375 105.4 130.775 105.107C131.175 104.81 131.619 104.733 132.107 104.874C132.537 104.998 132.841 105.249 133.02 105.626L133.621 103.547L134.533 103.811L132.865 109.575L132.04 109.336L132.117 108.902C131.748 109.154 131.337 109.214 130.881 109.082C130.406 108.944 130.076 108.642 129.892 108.173C129.71 107.706 129.714 107.143 129.904 106.485ZM130.793 106.828C130.674 107.241 130.659 107.586 130.75 107.865C130.843 108.141 131.036 108.322 131.329 108.406C131.702 108.514 132.022 108.427 132.291 108.144L132.793 106.41C132.719 106.037 132.496 105.796 132.123 105.688C131.828 105.603 131.567 105.654 131.338 105.843C131.111 106.029 130.929 106.358 130.793 106.828ZM140.153 111.683L139.203 111.408L137.889 106.827L136.768 110.704L135.819 110.429L137.399 104.965L138.348 105.24L139.666 109.838L140.791 105.947L141.733 106.219L140.153 111.683ZM141.614 109.865C141.729 109.467 141.911 109.132 142.161 108.86C142.411 108.585 142.703 108.404 143.038 108.317C143.373 108.226 143.725 108.235 144.096 108.342C144.643 108.501 145.036 108.805 145.275 109.257C145.515 109.708 145.565 110.23 145.424 110.821L145.366 111.036C145.25 111.436 145.069 111.771 144.823 112.041C144.579 112.312 144.288 112.493 143.951 112.582C143.616 112.672 143.26 112.663 142.885 112.554C142.312 112.389 141.908 112.066 141.673 111.586C141.441 111.104 141.417 110.545 141.601 109.91L141.614 109.865ZM142.503 110.207C142.382 110.625 142.373 110.978 142.477 111.265C142.582 111.55 142.788 111.737 143.096 111.826C143.403 111.915 143.677 111.865 143.917 111.674C144.159 111.483 144.347 111.157 144.481 110.694C144.599 110.284 144.605 109.933 144.496 109.641C144.391 109.351 144.187 109.161 143.884 109.074C143.586 108.988 143.315 109.038 143.072 109.225C142.828 109.41 142.639 109.737 142.503 110.207ZM149.492 113.022L150.948 110.406L151.838 110.663L149.556 114.403L148.806 114.186L148.742 111.146L147.08 113.686L146.329 113.469L146.393 109.088L147.282 109.345L147.137 112.308L148.772 109.776L149.459 109.975L149.492 113.022Z" fill="white"/>
<rect x="78.5633" y="34.2363" width="4" height="4" transform="rotate(35.4009 78.5633 34.2363)" stroke="#06C487"/>
<rect x="110.404" y="23.7188" width="5" height="5" transform="rotate(11.4726 110.404 23.7188)" fill="#00C2FF"/>
<rect x="94.8114" y="4.32702" width="4" height="4" transform="rotate(78.0568 94.8114 4.32702)" stroke="#E93651"/>
<rect x="198.04" y="58.2513" width="4" height="4" transform="rotate(-148.969 198.04 58.2513)" stroke="#06C487"/>
<rect x="184.115" y="89.3094" width="4" height="4" transform="rotate(-106.313 184.115 89.3094)" stroke="#E93651"/>
</svg>
