<svg width="162" height="193" viewBox="0 0 162 193" fill="none" xmlns="http://www.w3.org/2000/svg">
<path d="M16.7282 81.4135L17.4626 81.1666L4.39717 66.0901C3.49321 65.0987 2.84243 63.9035 2.50031 62.6062C2.23261 61.5416 2.30707 60.4197 2.71311 59.3998C3.15443 58.3621 3.87959 57.4699 4.80526 56.8259C5.93337 56.0421 7.20619 55.4907 8.54954 55.2038L43.4061 47.0504C44.6306 46.7824 45.8887 46.7028 47.1372 46.8142C48.4918 46.9277 49.8293 47.193 51.1246 47.6052C52.4534 48.0171 53.7351 48.568 54.9483 49.2488C56.1277 49.9077 57.2196 50.7123 58.1981 51.6439L135.046 125.938C136.316 127.157 137.425 128.532 138.347 130.031C139.172 131.359 139.792 132.803 140.185 134.316C140.538 135.626 140.608 136.995 140.391 138.334C140.187 139.552 139.613 140.678 138.747 141.558L111.164 169.131C109.936 170.353 108.401 171.219 106.721 171.639C104.92 172.076 103.046 172.115 101.228 171.753C99.1927 171.36 97.2423 170.611 95.4662 169.542C93.5052 168.372 91.7454 166.893 90.2543 165.163L27.3628 92.5948L26.6453 92.8763L16.7282 81.4135Z" fill="#2F2E41"/>
<path d="M18.6576 79.2803L19.392 79.0334L6.32795 63.9562C5.42424 62.9647 4.77307 61.7699 4.42971 60.473C4.16324 59.408 4.23817 58.2861 4.64389 57.2659C5.08463 56.2278 5.80991 55.3355 6.73604 54.692C7.86415 53.9082 9.13697 53.3568 10.4803 53.0699L45.3355 44.9172C46.5599 44.6492 47.8181 44.5696 49.0666 44.681C50.4212 44.7944 51.7587 45.0597 53.054 45.472C54.3828 45.8839 55.6645 46.4348 56.8777 47.1155C58.057 47.7746 59.1489 48.5792 60.1275 49.5106L136.976 123.806C138.246 125.025 139.355 126.4 140.278 127.899C141.102 129.227 141.721 130.671 142.115 132.183C142.467 133.493 142.537 134.862 142.32 136.201C142.116 137.419 141.542 138.544 140.676 139.425L113.093 166.998C111.866 168.219 110.331 169.086 108.651 169.506C106.85 169.943 104.975 169.982 103.158 169.62C101.122 169.227 99.1717 168.478 97.3956 167.409C95.4346 166.238 93.6748 164.76 92.1837 163.03L29.2922 90.4616L28.5678 90.7464L18.6576 79.2803Z" fill="#3F3D56"/>
<path d="M11.8588 55.191L16.9613 53.9494C17.1054 54.3726 17.3424 54.7582 17.6551 55.0778C18.0165 55.4543 18.4312 55.7756 18.8859 56.0316C19.9127 56.6154 21.0641 56.9454 22.2442 56.9943C22.3858 56.9994 22.5239 56.9998 22.6586 56.9957C22.7933 56.9915 22.9267 56.9835 23.0588 56.9715C23.1895 56.9591 23.3163 56.9423 23.4393 56.921C23.5623 56.8998 23.6845 56.8733 23.8057 56.8415L43.6161 51.7077C43.9883 51.622 44.3343 51.4479 44.6252 51.2004C44.8581 50.9983 45.0169 50.7241 45.0762 50.4215C45.13 50.1015 45.0886 49.7727 44.9571 49.4761C44.79 49.0984 44.5509 48.7568 44.2532 48.4705C44.1761 48.3942 44.0935 48.3171 44.0054 48.2392C43.9173 48.1614 43.8246 48.0881 43.7272 48.0193C43.6344 47.9505 43.5353 47.8804 43.4297 47.8088C43.3241 47.7372 43.218 47.6715 43.1114 47.6118L46.8899 46.6944C47.8064 46.4861 48.7495 46.4206 49.686 46.5004C50.7063 46.5815 51.7141 46.7783 52.69 47.0871C53.6929 47.3985 54.6597 47.8159 55.5741 48.3323C56.4626 48.8287 57.2844 49.4362 58.0196 50.14L135.195 125.239C136.148 126.159 136.978 127.199 137.665 128.332C138.277 129.329 138.732 130.415 139.016 131.55C139.268 132.527 139.307 133.547 139.13 134.541C138.963 135.446 138.52 136.278 137.862 136.922L109.757 164.052C108.828 164.942 107.678 165.569 106.426 165.866C105.088 166.178 103.7 166.199 102.353 165.928C100.852 165.633 99.4132 165.078 98.1015 164.29C96.6554 163.427 95.3559 162.339 94.2517 161.068L8.84281 63.3522C8.16781 62.6175 7.6777 61.7325 7.41315 60.7705C7.20442 59.9781 7.24836 59.1404 7.53882 58.3742C7.85415 57.5946 8.38477 56.9209 9.06872 56.4316C9.90575 55.8345 10.8547 55.4125 11.8588 55.191V55.191Z" fill="#2196F3"/>
<rect x="62.1188" y="158.177" width="4" height="4" transform="rotate(150.948 62.1188 158.177)" stroke="#06C487"/>
<rect x="90.1188" y="124.177" width="4" height="4" transform="rotate(150.948 90.1188 124.177)" stroke="#06C487"/>
<rect x="161.877" y="21.4609" width="5" height="5" transform="rotate(127.02 161.877 21.4609)" fill="#00C2FF"/>
<rect x="149.003" y="98.0078" width="5" height="5" transform="rotate(127.02 149.003 98.0078)" fill="#00C2FF"/>
<rect x="5.0966" y="92.1855" width="4" height="4" transform="rotate(-166.396 5.0966 92.1855)" stroke="#E93651"/>
<rect x="58.4911" y="27.4316" width="4" height="4" transform="rotate(-166.396 58.4911 27.4316)" stroke="#E93651"/>
<path d="M89.6387 55.9697C88.7879 49.7557 93.8014 44.3014 100.065 44.6268L115.224 45.4143C121.218 45.7256 125.589 51.2099 124.556 57.1222L112.833 124.205C112.248 127.555 109.311 130 105.91 130V130C102.411 130 99.4204 127.416 98.9458 123.95L89.6387 55.9697Z" fill="#F9FE02" fill-opacity="0.21"/>
<path d="M97.0791 112.208C96.4283 108.142 98.3361 104.093 101.886 102.006L103.278 101.188C105.56 99.8468 108.403 99.9073 110.626 101.345L111.3 101.78C114.741 104.006 116.476 108.105 115.678 112.125L113.249 124.363C112.599 127.64 109.724 130 106.383 130H105.896C102.457 130 99.5273 127.502 98.9838 124.106L97.0791 112.208Z" fill="#FFB800" fill-opacity="0.22"/>
<path d="M61.1787 65.2213C60.0914 58.6238 65.6604 52.8384 72.2946 53.6736L77.3625 54.3115C83.1137 55.0355 87.0465 60.4821 85.9243 66.1691L78.5695 103.442C78.0469 106.091 75.7243 108 73.0248 108V108C70.2582 108 67.8983 105.997 67.4484 103.267L61.1787 65.2213Z" fill="#FFB800" fill-opacity="0.28"/>
<path d="M65.8008 93.3506C65.0995 89.1184 68.1543 85.1868 72.4284 84.8204V84.8204C77.2533 84.4068 81.1541 88.6883 80.2944 93.4539L78.5023 103.388C78.0206 106.058 75.6966 108 72.9835 108V108C70.2401 108 67.8995 106.015 67.451 103.309L65.8008 93.3506Z" fill="#FFB800" fill-opacity="0.28"/>
<ellipse cx="72.9858" cy="67.2988" rx="6.97232" ry="11.1684" transform="rotate(-11.0636 72.9858 67.2988)" fill="#C68E00"/>
<path d="M77.9757 66.4426C78.5518 69.3891 78.4052 72.1746 77.7147 74.2928C77.0212 76.42 75.8024 77.8178 74.2715 78.1171C72.7407 78.4164 71.0851 77.5807 69.6415 75.8714C68.204 74.1693 67.019 71.6441 66.4429 68.6977C65.8668 65.7512 66.0133 62.9656 66.7038 60.8475C67.3973 58.7203 68.6161 57.3225 70.147 57.0232C71.6779 56.7238 73.3334 57.5596 74.777 59.2689C76.2145 60.971 77.3995 63.4962 77.9757 66.4426Z" fill="#FFB800" stroke="#FCDC6B" stroke-width="0.5"/>
<ellipse cx="104.045" cy="64.5059" rx="8.05161" ry="11.1684" transform="rotate(-11.0636 104.045 64.5059)" fill="#D29700"/>
<path d="M110.193 63.4229C110.768 66.3619 110.5 69.1653 109.614 71.319C108.728 73.4748 107.238 74.951 105.38 75.3142C103.523 75.6774 101.587 74.871 99.9536 73.2079C98.3221 71.5464 97.0176 69.0506 96.4429 66.1115C95.8682 63.1725 96.1366 60.3691 97.0221 58.2155C97.9086 56.0596 99.3983 54.5835 101.256 54.2202C103.113 53.857 105.049 54.6634 106.683 56.3265C108.314 57.988 109.619 60.4838 110.193 63.4229Z" fill="#FFB800" stroke="#FCDC6B" stroke-width="0.5"/>
<ellipse cx="99.4177" cy="5.49998" rx="3.54103" ry="4.91177" transform="rotate(-11.0636 99.4177 5.49998)" fill="#D29700"/>
<path d="M101.984 5.05072C102.232 6.32022 102.115 7.5248 101.737 8.4432C101.359 9.3638 100.734 9.96825 99.978 10.1161C99.222 10.2639 98.4157 9.93928 97.7182 9.22906C97.0225 8.52055 96.46 7.44891 96.2117 6.17941C95.9635 4.90991 96.0809 3.70532 96.4586 2.78693C96.8371 1.86632 97.4619 1.26187 98.2179 1.11405C98.9739 0.966229 99.7803 1.29085 100.478 2.00106C101.173 2.70958 101.736 3.78122 101.984 5.05072Z" fill="#FFB800" stroke="#FCDC6B" stroke-width="0.5"/>
<ellipse cx="152.213" cy="51" rx="2.57529" ry="3.5722" transform="rotate(-11.0636 152.213 51)" fill="#D29700"/>
<path d="M154.012 50.6857C154.191 51.5977 154.106 52.46 153.837 53.114C153.567 53.7701 153.127 54.1879 152.607 54.2896C152.087 54.3913 151.522 54.1698 151.025 53.6636C150.53 53.1592 150.126 52.3924 149.948 51.4804C149.77 50.5684 149.855 49.7061 150.124 49.0522C150.393 48.396 150.833 47.9782 151.353 47.8765C151.873 47.7748 152.438 47.9963 152.935 48.5025C153.43 49.0069 153.834 49.7737 154.012 50.6857Z" fill="#FFB800" stroke="#FCDC6B" stroke-width="0.5"/>
<ellipse cx="10.2128" cy="32" rx="2.57529" ry="3.5722" transform="rotate(-11.0636 10.2128 32)" fill="#D29700"/>
<path d="M12.0123 31.6857C12.1906 32.5977 12.1055 33.46 11.8367 34.114C11.5669 34.7701 11.1273 35.1879 10.6071 35.2896C10.087 35.3913 9.52245 35.1698 9.02537 34.6636C8.52997 34.1592 8.12635 33.3924 7.94802 32.4804C7.76969 31.5684 7.85479 30.7061 8.12368 30.0522C8.39348 29.396 8.83303 28.9782 9.35318 28.8765C9.87334 28.7748 10.4379 28.9963 10.935 29.5025C11.4304 30.0069 11.834 30.7737 12.0123 31.6857Z" fill="#FFB800" stroke="#FCDC6B" stroke-width="0.5"/>
<ellipse cx="82.2128" cy="39" rx="2.57529" ry="3.5722" transform="rotate(-11.0636 82.2128 39)" fill="#D29700"/>
<path d="M84.0123 38.6857C84.1906 39.5977 84.1055 40.46 83.8367 41.114C83.5669 41.7701 83.1273 42.1879 82.6071 42.2896C82.087 42.3913 81.5224 42.1698 81.0254 41.6636C80.53 41.1592 80.1264 40.3924 79.948 39.4804C79.7697 38.5684 79.8548 37.7061 80.1237 37.0522C80.3935 36.396 80.833 35.9782 81.3532 35.8765C81.8733 35.7748 82.4379 35.9963 82.935 36.5025C83.4304 37.0069 83.834 37.7737 84.0123 38.6857Z" fill="#FFB800" stroke="#FCDC6B" stroke-width="0.5"/>
<path d="M106.183 62.5V61.5H101.183V62.5H102.774C103.366 62.5 103.866 62.919 104.054 63.5H101.183V64.5H104.054C103.961 64.7916 103.788 65.0443 103.558 65.2234C103.329 65.4024 103.055 65.4991 102.774 65.5H101.183V66.707L103.723 69.5H105.008L102.281 66.5H102.774C103.298 66.4992 103.805 66.2999 104.211 65.9355C104.616 65.5712 104.895 65.0642 105.001 64.5H106.183V63.5H105.001C104.931 63.1361 104.787 62.7942 104.581 62.5H106.183Z" fill="#FFE68C"/>
<path d="M73.9999 65.75V65H69.9999V65.75H71.2726C71.7461 65.75 72.1457 66.0643 72.2962 66.5H69.9999V67.25H72.2962C72.2216 67.4687 72.0831 67.6582 71.8998 67.7925C71.7165 67.9268 71.4974 67.9993 71.2726 68H69.9999V68.9053L72.0312 71H73.0595L70.8777 68.75H71.2726C71.6915 68.7494 72.0974 68.5999 72.4218 68.3267C72.7463 68.0534 72.9694 67.6732 73.0537 67.25H73.9999V66.5H73.0537C72.998 66.2271 72.8831 65.9707 72.7177 65.75H73.9999Z" fill="#FFE68C"/>
<ellipse cx="94.4999" cy="189.5" rx="27.5" ry="3.5" fill="#4B4B4B" fill-opacity="0.28"/>
</svg>
