<svg width="26" height="26" viewBox="0 0 26 26" fill="none" xmlns="http://www.w3.org/2000/svg">
<g id="visibility_24px">
<path id="icon/action/visibility_24px" fill-rule="evenodd" clip-rule="evenodd" d="M13 4.875C7.58337 4.875 2.95754 8.24417 1.08337 13C2.95754 17.7558 7.58337 21.125 13 21.125C18.4167 21.125 23.0425 17.7558 24.9167 13C23.0425 8.24417 18.4167 4.875 13 4.875ZM13 18.4167C10.01 18.4167 7.58337 15.99 7.58337 13C7.58337 10.01 10.01 7.58333 13 7.58333C15.99 7.58333 18.4167 10.01 18.4167 13C18.4167 15.99 15.99 18.4167 13 18.4167ZM9.75004 13C9.75004 11.2017 11.2017 9.75 13 9.75C14.7984 9.75 16.25 11.2017 16.25 13C16.25 14.7983 14.7984 16.25 13 16.25C11.2017 16.25 9.75004 14.7983 9.75004 13Z" fill="black" fill-opacity="0.54"/>
</g>
</svg>
