<svg width="20" height="16" viewBox="0 0 20 16" fill="none" xmlns="http://www.w3.org/2000/svg">
<path fill-rule="evenodd" clip-rule="evenodd" d="M19.7644 6.24713C19.6293 6.04601 19.359 5.99398 19.1606 6.13092C19.0192 6.2285 18.7275 6.24837 18.2264 6.07755C17.7572 5.91762 17.241 5.63804 16.7737 5.36772C16.5652 5.24711 16.2998 5.32064 16.1808 5.53195C16.0618 5.74326 16.1343 6.01234 16.3428 6.13294C16.8122 6.40453 17.3926 6.72292 17.9493 6.91268C18.474 7.09156 19.1374 7.21285 19.6498 6.85923C19.8482 6.72229 19.8995 6.44824 19.7644 6.24713Z" fill="black"/>
<path d="M0.814155 12.5761C-0.396463 13.2615 4.39119 12.6735 5.77222 12.9262C7.15324 13.1789 4.66275 11.29 4.66275 11.29L4.05573 9.35238C3.61352 11.0701 2.02477 11.8906 0.814155 12.5761Z" fill="black"/>
<path fill-rule="evenodd" clip-rule="evenodd" d="M15.8965 0.429747C16.1044 0.308093 16.3702 0.380288 16.4902 0.590999C16.8596 1.23945 16.5743 1.89727 16.3117 2.36673C16.2205 2.52968 16.1125 2.70238 16.0113 2.86422C15.9627 2.94182 15.9158 3.01692 15.873 3.08725C15.7315 3.31976 15.6185 3.52603 15.5499 3.71792C15.4682 3.9467 15.219 4.06503 14.9933 3.98222C14.7676 3.89941 14.6509 3.64681 14.7326 3.41803C14.833 3.13668 14.9859 2.86665 15.1331 2.62469C15.1887 2.53337 15.2422 2.44799 15.2936 2.36579C15.3873 2.21625 15.4743 2.07725 15.5555 1.93215C15.8141 1.46971 15.8461 1.22241 15.7374 1.03155C15.6174 0.820837 15.6886 0.551401 15.8965 0.429747Z" fill="black"/>
<path fill-rule="evenodd" clip-rule="evenodd" d="M13.6877 8.42045C14.2534 8.50846 14.8514 8.4092 15.3856 8.09657C16.6329 7.36664 17.0603 5.75003 16.3401 4.48576C15.62 3.22149 14.0251 2.78832 12.7778 3.51825C11.5305 4.24817 11.1031 5.86479 11.8232 7.12906C11.9853 7.4136 12.1917 7.65605 12.4285 7.85261C12.1917 7.65603 11.9852 7.41355 11.8231 7.12895C11.4115 6.40629 11.3748 5.56851 11.6518 4.84701C10.296 4.32368 8.48957 4.50191 6.85604 5.45784C4.36143 6.9177 3.21482 9.63848 4.29502 11.5349C5.37522 13.4313 8.27318 13.7852 10.7678 12.3253C12.4015 11.3693 13.4571 9.8724 13.6877 8.42045Z" fill="#F1F3F4"/>
<path fill-rule="evenodd" clip-rule="evenodd" d="M13.6877 8.4205C12.9325 8.30306 12.2348 7.85191 11.8231 7.12908C11.4115 6.40642 11.3748 5.56864 11.6518 4.84714C10.296 4.32381 8.48957 4.50204 6.85604 5.45798C4.36143 6.91783 3.21482 9.63861 4.29502 11.535C5.37522 13.4314 8.27318 13.7853 10.7678 12.3255C12.4016 11.3694 13.4571 9.87247 13.6877 8.4205Z" fill="#FFA800"/>
<mask id="mask0_926_3862" style="mask-type:alpha" maskUnits="userSpaceOnUse" x="3" y="4" width="11" height="10">
<ellipse rx="3.95171" ry="5.23349" transform="matrix(0.494944 0.868925 -0.863077 0.505073 8.81208 8.89149)" fill="#C4C4C4"/>
</mask>
<g mask="url(#mask0_926_3862)">
<rect width="10.5379" height="1.7445" transform="matrix(0.494944 0.868925 -0.863077 0.505073 5.66864 5.13574)" fill="black"/>
<rect width="10.5379" height="1.7445" transform="matrix(0.494944 0.868925 -0.863077 0.505073 2.65735 6.89795)" fill="black"/>
<rect width="10.5379" height="1.7445" transform="matrix(0.494944 0.868925 -0.863077 0.505073 8.67993 3.37305)" fill="black"/>
<rect width="10.5379" height="1.7445" transform="matrix(0.494944 0.868925 -0.863077 0.505073 11.6912 1.61084)" fill="black"/>
<ellipse rx="2.63447" ry="2.61674" transform="matrix(0.494944 0.868925 -0.863077 0.505073 14.0817 5.80759)" fill="black"/>
</g>
<path fill-rule="evenodd" clip-rule="evenodd" d="M13.6877 8.42112C14.2534 8.50913 14.8514 8.40986 15.3856 8.09723C16.6329 7.36731 17.0603 5.75069 16.3402 4.48643C15.62 3.22216 14.0251 2.78899 12.7778 3.51891C12.2437 3.8315 11.8599 4.30669 11.6522 4.84719C12.3668 5.12307 12.9561 5.59385 13.329 6.24839C13.7018 6.903 13.8094 7.65583 13.6877 8.42112Z" fill="#FFA800"/>
<path d="M13.6877 8.42132C14.2534 8.50933 14.8514 8.41007 15.3857 8.09744C16.633 7.36751 17.0603 5.7509 16.3402 4.48663C15.6201 3.22236 15.6819 5.09303 15.5228 5.69483C15.3637 6.29663 14.7612 5.58544 14.24 5.71564C13.7208 5.84538 13.3289 6.24883 13.3289 6.24883C13.3289 6.24883 13.8093 7.65611 13.6877 8.42132Z" fill="black" fill-opacity="0.2"/>
<path d="M6.88598 12.8526C6.93091 13.397 10.7344 11.9875 12.2256 10.1782C13.0973 9.12058 14.0144 8.55116 13.2943 7.28689C12.7743 6.37392 11.8628 7.90442 11.6634 8.2413C11.1705 9.07382 6.17379 12.1094 5.18836 11.3635L6.88598 12.8526Z" fill="black" fill-opacity="0.2"/>
<path fill-rule="evenodd" clip-rule="evenodd" d="M12.9667 7.41758L13.8196 7.55027C14.1969 7.60897 14.5941 7.54308 14.951 7.33423C15.7825 6.84761 16.0674 5.76987 15.5873 4.92702C15.1072 4.08418 14.044 3.7954 13.2124 4.28202C12.8555 4.49086 12.6006 4.80656 12.4621 5.16716L12.149 5.98217L11.3427 5.67086C10.2744 5.25845 8.74123 5.37245 7.29075 6.22128C6.19057 6.8651 5.41717 7.77097 5.03444 8.67915C4.65184 9.58702 4.67528 10.4405 5.0479 11.0947C5.42052 11.7489 6.13805 12.1962 7.10504 12.3143C8.07237 12.4324 9.23305 12.2065 10.3332 11.5627C11.7837 10.7138 12.6477 9.425 12.8295 8.28107L12.9667 7.41758ZM11.6521 4.84747C11.8597 4.30688 12.2436 3.83159 12.7778 3.51896C14.0251 2.78904 15.62 3.22221 16.3402 4.48647C17.0603 5.75074 16.6329 7.36736 15.3856 8.09728C14.8514 8.40991 14.2534 8.50918 13.6877 8.42117C13.457 9.87301 12.4015 11.3697 10.7679 12.3257C8.27324 13.7856 5.37528 13.4317 4.29508 11.5353C3.21488 9.63886 4.36149 6.91808 6.85611 5.45822C8.48971 4.50224 10.2963 4.32404 11.6521 4.84747Z" fill="black"/>
<path d="M4.69649 2.20884C5.48789 0.989126 7.7553 1.08415 9.76089 2.42108C11.7665 3.75801 12.7508 5.83058 11.9594 7.0503C11.168 8.27001 9.91824 8.75347 6.89498 6.83806C4.88939 5.50113 3.90509 3.42856 4.69649 2.20884Z" fill="white" fill-opacity="0.9"/>
<path fill-rule="evenodd" clip-rule="evenodd" d="M6.73746 2.23657C5.98327 2.20496 5.58479 2.44331 5.42278 2.69299C5.26078 2.94267 5.20272 3.40795 5.53012 4.09733C5.84779 4.76623 6.47497 5.50156 7.36441 6.0964C8.82989 7.02362 9.70876 7.26182 10.2273 7.23954C10.6482 7.22146 10.9344 7.0265 11.2331 6.56615C11.3951 6.31647 11.4532 5.85119 11.1258 5.16181C10.8071 4.49085 10.177 3.75305 9.28324 3.15724C8.38945 2.56144 7.47149 2.26733 6.73746 2.23657ZM6.89499 6.83806C9.91825 8.75347 11.168 8.27001 11.9594 7.0503C12.7508 5.83058 11.7665 3.75801 9.76089 2.42108C7.7553 1.08415 5.48789 0.989128 4.69649 2.20884C3.9051 3.42856 4.8894 5.50113 6.89499 6.83806Z" fill="black"/>
<path d="M12.4646 15.8466C13.9025 15.7618 14.955 13.7239 14.8155 11.2949C14.676 8.86597 13.1501 6.98026 11.9595 7.0505C11.1566 7.09787 9.64282 7.38881 9.60865 11.6021C9.74813 14.0311 11.0268 15.9314 12.4646 15.8466Z" fill="#E9E9E9" fill-opacity="0.9"/>
<path fill-rule="evenodd" clip-rule="evenodd" d="M13.4614 14.0412C13.1113 14.719 12.7085 14.9496 12.4141 14.967C12.1198 14.9844 11.6932 14.8027 11.2679 14.1706C10.8576 13.5608 10.5442 12.6497 10.4782 11.5796C10.4981 9.56757 10.8739 8.69131 11.1716 8.31822C11.4263 7.99913 11.7023 7.94827 12.01 7.93011C12.1575 7.92141 12.5905 8.07091 13.0777 8.75248C13.5272 9.38129 13.8875 10.298 13.9477 11.3461C14.0099 12.4286 13.8022 13.3815 13.4614 14.0412ZM9.60865 11.6021C9.64282 7.38881 11.1566 7.09787 11.9595 7.0505C13.1501 6.98026 14.676 8.86597 14.8155 11.2949C14.955 13.7239 13.9025 15.7618 12.4646 15.8466C11.0268 15.9314 9.74813 14.0311 9.60865 11.6021Z" fill="black"/>
</svg>
