<svg width="24" height="24" viewBox="0 0 24 24" fill="none" xmlns="http://www.w3.org/2000/svg">
<path fill-rule="evenodd" clip-rule="evenodd" d="M14.6067 2.0117C14.5636 2.00401 14.5193 2 14.474 2C14.4287 2 14.3844 2.00401 14.3413 2.0117H8.08369C5.5964 2.0117 3.49969 4.02953 3.49969 6.4907V17.2037C3.49969 19.8043 5.50429 21.8647 8.08369 21.8647H16.0727C18.526 21.8647 20.5517 19.7028 20.5517 17.2037V8.0377C20.5517 7.84408 20.4768 7.65797 20.3427 7.5183L15.2777 2.2423C15.1363 2.09498 14.9409 2.0117 14.7367 2.0117H14.6067ZM13.724 3.5109L8.08369 3.5117C6.41223 3.5117 4.99969 4.8711 4.99969 6.4907V17.2037C4.99969 18.9849 6.34208 20.3647 8.08369 20.3647H16.0727C17.675 20.3647 19.0517 18.8954 19.0517 17.2037L19.051 8.98309L18.1755 8.98607C17.8419 8.98566 17.4624 8.98496 17.0404 8.984C15.2709 8.98026 13.8267 7.59329 13.7292 5.84739L13.724 5.659V3.5109ZM18.2302 7.48384L17.0437 7.484C16.0382 7.48188 15.224 6.66546 15.224 5.659V4.35245L18.2302 7.48384ZM14.284 14.8076C14.6982 14.8076 15.034 15.1434 15.034 15.5576C15.034 15.9373 14.7518 16.2511 14.3858 16.3008L14.284 16.3076H8.88699C8.47278 16.3076 8.13699 15.9718 8.13699 15.5576C8.13699 15.1779 8.41915 14.8641 8.78522 14.8144L8.88699 14.8076H14.284ZM12.9925 10.6054C12.9925 10.1912 12.6567 9.8554 12.2425 9.8554H8.88649L8.78472 9.86225C8.41865 9.91191 8.13649 10.2257 8.13649 10.6054C8.13649 11.0196 8.47228 11.3554 8.88649 11.3554H12.2425L12.3443 11.3486C12.7103 11.2989 12.9925 10.9851 12.9925 10.6054Z" fill="#4D4D4D"/>
</svg>
