<svg width="26" height="26" viewBox="0 0 26 26" fill="none" xmlns="http://www.w3.org/2000/svg">
<g id="account_circle_24px">
<path id="icon/action/account_circle_24px" fill-rule="evenodd" clip-rule="evenodd" d="M13 2.16675C7.02002 2.16675 2.16669 7.02008 2.16669 13.0001C2.16669 18.9801 7.02002 23.8334 13 23.8334C18.98 23.8334 23.8334 18.9801 23.8334 13.0001C23.8334 7.02008 18.98 2.16675 13 2.16675ZM13 5.41675C14.7984 5.41675 16.25 6.86841 16.25 8.66675C16.25 10.4651 14.7984 11.9167 13 11.9167C11.2017 11.9167 9.75002 10.4651 9.75002 8.66675C9.75002 6.86841 11.2017 5.41675 13 5.41675ZM6.50002 17.3118C7.89752 19.4134 10.2917 20.8001 13 20.8001C15.7084 20.8001 18.1025 19.4134 19.5 17.3118C19.4675 15.1559 15.1559 13.9751 13 13.9751C10.8334 13.9751 6.53252 15.1559 6.50002 17.3118Z" fill="black" fill-opacity="0.54"/>
</g>
</svg>
