<svg xmlns="http://www.w3.org/2000/svg" enable-background="new 0 0 4000 3000" viewBox="0 0 4000 3000"><path fill="#d3e8f9" d="M3159.1 550.9c-575.6-169-652.5 573.2-1504.9 570.9s-1050.4 351-1050.4 895.4 559 592.7 1079.5 592.7 1145.2-234.6 1524.7-762.4c248.8-346.1 746.3-1063.2-48.9-1296.6z"/><path fill="#3279af" d="m1253.5 1440.3-14.7 72.9s89.3-3.4 138.3-94.2c51-94.5 0-188.8 0-188.8l-39.5 63.4"/><path fill="#fff" d="m2194.2 1535.8 17-25.1c38.8 5.3 62.2-49.7 78-71.5 15.8-21.8 55.4-58.2 48.5-65.3-6.9-7.1-57 38.7-57 38.7s59.8-62.5 50.9-70.1c-8.9-7.6-64.9 49.5-64.9 49.5s46.3-83.8 34.7-89.4c-11.7-5.5-56.3 80.5-56.3 80.5s25.4-82.5 12.3-80.5-54.3 110.6-54.3 110.6-8.2-28.2-13.7-46c-5.5-17.9-24.7-14.4-24.7-14.4 19.9 55.7-5.5 80.4 9.2 127.1l-12.6 20.9 32.9 35z"/><path fill="#3279af" d="M1695.1 1683.1c27.5 19 212.7 65.7 316.9-15.1 73.4-56.9 125-129 149.1-166.7l88.7 79.7c-25.7 55-136.6 181.4-230.1 241.1-110.8 70.7-308.2 27.8-374.7 10.1l50.1-149.1z"/><path fill="#0a1324" d="M1645 1832.3c12.8 3.4 30.4 7.7 51.3 12l70.8-92.5-16.9-49.6c-27.2-6.3-47.3-13.8-55-19.1l-50.2 149.2z"/><path fill="#3279af" d="m1645 1832.3 86.7-89.9-36.6-59.2 50.6-32.9-50.6-9.9s-35.6 6.9-56.2 69.7c-20.7 62.7 6.1 122.2 6.1 122.2z"/><path fill="#1f3e76" d="M1666.4 1675.6s18 93.7-21.4 156.7l-123.5 155.8s-14.2 34.3-98.3 32.2c-84.1-2.1-97.2-47.6-97.2-47.6l255.8-369.2 84.6 72.1z"/><path fill="#fff" d="M1767 1580.4s-63.6 40.3-100.6 95.2c0 0-5.5 61.6-53.6 35.9l-74.6-45 43.7-63.1 9.5-14.4-4.7-33 39.6-27.2 140.7 51.6z"/><path fill="#1f3e76" d="M1671.9 1400.9s42.7-45.5-7.8-69.3l2.3 25s-16.6-42.5-52.8-42.5c0 0 30 18.1-8.1 43.4-38.1 25.3-121.8 75.3-110.6 135.3 11.2 60 96.4 96.3 96.4 96.3l20.2-26s74.9-21 71.7-76.7-11.3-85.5-11.3-85.5z"/><path fill="#3279af" d="m980.6 2311-232.9-123.2-107 123.7s326 215.4 455 217.5 368-388.5 368-388.5l-126.2-53.7L980.6 2311z"/><path fill="#0a1324" d="m980.6 2311-48-25.4 41.9 210.2c47 19.5 89.9 32.5 121.2 33.1 129.1 2.1 368-388.5 368-388.5l-126.2-53.7L980.6 2311z"/><path fill="#3279af" d="M1394.4 2140.7s205.1-8.5 335.8 38.1c130.7 46.6 343.9 251.3 343.9 251.3L2185 2311s-218.2-183.3-342.7-252.2c-124.5-69-516.4-86.1-516.4-86.1s-51.6 53.6-26.3 92.3"/><path fill="#3279af" d="m1514.2 1586.5-13.3 37.9s-299.2-109.5-362.9-35.6c-36.5 42.3-49.1 153.6-53.2 241-85.2-18.5-149.6-54.1-149.6-54.1l-231.5 106.4s106.4 122.7 419.2 122.7c312.9 0 483.5-215.2 483.5-215.2l7.6-95.6 52.2-69.4-152-38.1zm-307 253.2c6-62.8 16-131.9 31.7-143.2 19.1-13.8 107.9 13.2 168.6 34.1-55.1 74.9-128.2 103.7-200.3 109.1z"/><path fill="#3279af" d="M2621.4 674.5s162.1-322.3 550.4-212.8 416.4 466 416.4 466-129.5-203-348.6-79.8c0 0-90.7-264.7-323.1-107.4 0-.1-91.2-239.2-295.1-66z"/><path fill="none" stroke="#0a1324" stroke-linecap="round" stroke-linejoin="round" stroke-miterlimit="10" stroke-width="10" d="m3100.7 697.4-191.8 635.8"/><path fill="#3279af" d="m3159.1 458.2 18.2-57.3c2.6-8.2 11.4-12.7 19.6-10.1 8 2.5 12.5 11 10.3 19l-16 57.6"/><path fill="#1f3e76" d="M2803.1 1571.5c-5.3 0-10.7-.6-16-1.8-19.7-4.4-36.9-16.9-47.1-34.3-10.3-17.4-13-38.4-7.4-57.8l10.1-34.9c3.1-10.6 14.1-16.7 24.8-13.7 10.6 3.1 16.7 14.1 13.7 24.8l-10.1 34.9c-2.6 9-1.4 18.3 3.4 26.3s12.4 13.6 21.5 15.6c17.1 3.8 34.4-6.3 39.4-23l48.6-161.2c3.2-10.6 14.4-16.6 24.9-13.4 10.6 3.2 16.6 14.3 13.4 24.9l-48.6 161.2c-9.6 31.6-38.8 52.4-70.6 52.4z"/><path fill="#1f3e76" d="M3239.6 847.8s-90.7-264.7-323.1-107.4c0 0 90.9-322.4 255.4-278.7 1.3.4 2.5.7 3.8 1.1 159.1 47.9 63.9 385 63.9 385z"/><path fill="#fff" d="m1671.9 1400.9 30.6 34 4.1 14.9 50.5 19.8-16.6 21.5 9.1 15.6-4.1 5s-24.8 20.7-24.8 48l28.9-22.3-1.3 14.7 18.7 28.3s-59.5 31.4-89.3 18.2c-29.8-13.2-51.3-38.9-51.3-38.9l-14.9 3.3s-30.7-16.1-39.7-32.8c-9-16.8-.5-41.6 33.7-24.2l27.3 10.3s12.2-34.3-12.8-77.4l51.9-38z"/><path fill="none" stroke="#0a1324" stroke-linecap="round" stroke-linejoin="round" stroke-miterlimit="10" stroke-width="10" d="M1715.3 1599.5c-13.6 2.9-27.4 3.6-37.6-.9-29.8-13.2-51.3-38.9-51.3-38.9l-14.9 3.3"/><path fill="none" stroke="#0a1324" stroke-linecap="round" stroke-linejoin="round" stroke-miterlimit="10" stroke-width="10" d="m1678.5 1408.3-24.3 23.9"/><path fill="#3279af" d="M1199.2 1384.3s8-91.2 69.5-114.3l68.9 23.6s13.2 98.9-84.1 146.7l-54.3-56z"/><path fill="none" stroke="#0a1324" stroke-linecap="round" stroke-linejoin="round" stroke-miterlimit="10" stroke-width="10" d="M1207.2 1839.8c-5.4 56.1-7.5 107.2-7.5 107.2h-116.3s-1.6-52.2 1.5-117.7"/><path fill="#0a1324" d="M1465.9 1751.8s-25-9.7-58.6-21.3h.1c-17.7 24-37.2 43.3-57.9 58.6 56.3 13.9 116.4-37.3 116.4-37.3z"/><path fill="#fff" d="m1199.7 1947.6-.4 29.6 16.2 88.2-8.1 16.2-18.7 5.1-9.1-10.2-56.6 10.2-16.3-32.3 16.3-20.5 5-50.5 14.2-13.3 1-19.3"/><path fill="#3279af" d="m1123 2033.9-76.6 27.4 2.9 62.3 29.2-6.8-5.4-40.9 53.5-13.5z"/><path fill="#3279af" d="m1208 2026.2 49.9-5.9 19.7 49.8-27.2 6.4-8.9-32.1-28.8 5.7"/><path fill="#87b4de" d="m941.3 2148.9 421.2-98.7 101.3 287.1-449.6 112.2z"/><path fill="#3279af" d="M1463.8 2337.3 1400 2415l-313.5 70.8-72.3-36.3z"/><path fill="#fff" d="m976.5 2140.7-25.2 49.2-10-41z"/><path fill="#fff" d="m1375.3 2086.7-49.3-27.9 36.5-8.6z"/><path fill="#1f3e76" d="m2112.1 2389.3 151 127.7s241-273.9 182.1-267.2c-58.8 6.6-212.4 102.6-212.4 102.6L2185 2311l-72.9 78.3z"/><path fill="#fff" d="m1007.9 2423.5 47.5 15.7-9.6 26.2-31.6-15.9z"/><path fill="#fff" d="m1440.7 2365.5-14.1-18.9 25.5-42.5 11.7 33.2z"/><path fill="#1f3e76" d="m747.7 2187.8-192.9-126.4s-175 308.4-142.3 309.3c32.7.9 193.3-180.5 193.3-180.5l88.2 59.7 53.7-62.1z"/><path fill="none" stroke="#0a1324" stroke-linecap="round" stroke-linejoin="round" stroke-miterlimit="10" stroke-width="10" d="M1586.6 1523.8s4-14.4 32.2 13.9"/><path fill="none" stroke="#0a1324" stroke-linecap="round" stroke-linejoin="round" stroke-miterlimit="10" stroke-width="10" d="M1686.6 1414.3c-19.2 9.8 8.7 65.9 19.6 63.9 11-2.1.2-74.1-19.6-63.9z"/><path fill="none" stroke="#0a1324" stroke-linecap="round" stroke-linejoin="round" stroke-miterlimit="10" stroke-width="10" d="m1683.3 1445.8-77.8 60.2"/><path fill="#0a1324" d="m2185.1 2311-19 124.1-54-45.8z"/><path fill="#0a1324" d="m747.7 2187.8-98.8 31.5 45.1 30.6z"/><path fill="#1f3e76" d="M1316.3 1286.3c-6.8 31.1-26.5 99.4-74.9 141.4l12.2 12.6c97.2-47.8 84.1-146.7 84.1-146.7l-21.4-7.3z"/><path fill="none" stroke="#0a1324" stroke-linecap="round" stroke-linejoin="round" stroke-miterlimit="10" stroke-width="10" d="m912.7 979.2 63.8 105.8"/><path fill="none" stroke="#0a1324" stroke-linecap="round" stroke-linejoin="round" stroke-miterlimit="10" stroke-width="10" d="m1185.1 675.2 57.7 85.6"/><path fill="none" stroke="#0a1324" stroke-linecap="round" stroke-linejoin="round" stroke-miterlimit="10" stroke-width="10" d="m2533.1 972.2 57.7 85.6"/><path fill="none" stroke="#0a1324" stroke-linecap="round" stroke-linejoin="round" stroke-miterlimit="10" stroke-width="10" d="m2069.1 999.2 57.7 85.6"/><path fill="none" stroke="#0a1324" stroke-linecap="round" stroke-linejoin="round" stroke-miterlimit="10" stroke-width="10" d="m1568.4 887.3 62.6 128"/><path fill="none" stroke="#0a1324" stroke-linecap="round" stroke-linejoin="round" stroke-miterlimit="10" stroke-width="10" d="m1796.7 488.8 70.3 163.9"/><path fill="none" stroke="#0a1324" stroke-linecap="round" stroke-linejoin="round" stroke-miterlimit="10" stroke-width="10" d="m2338.5 609.9 71 137.3"/><path fill="none" stroke="#0a1324" stroke-linecap="round" stroke-linejoin="round" stroke-miterlimit="10" stroke-width="10" d="m1882 1207 65.4 125.5"/><path fill="none" stroke="#0a1324" stroke-linecap="round" stroke-linejoin="round" stroke-miterlimit="10" stroke-width="10" d="m802.2 1506 50.3 83"/></svg>