<svg width="16" height="16" viewBox="0 0 16 16" fill="none" xmlns="http://www.w3.org/2000/svg">
<path fill-rule="evenodd" clip-rule="evenodd" d="M7.46715 2.05322C4.45511 2.05322 2.01337 4.44104 2.01337 7.38656C2.01337 10.3321 4.45511 12.7199 7.46715 12.7199C8.74551 12.7199 9.92114 12.2898 10.851 11.5695L13.1437 13.8058L13.1991 13.8524C13.3925 13.9923 13.6666 13.9764 13.8416 13.8049C14.0341 13.6162 14.0337 13.3106 13.8407 13.1224L11.5666 10.9043C12.4097 9.96533 12.9209 8.73433 12.9209 7.38656C12.9209 4.44104 10.4792 2.05322 7.46715 2.05322ZM7.46717 2.87471C10.0153 2.87471 12.0809 4.89474 12.0809 7.38656C12.0809 9.87839 10.0153 11.8984 7.46717 11.8984C4.91906 11.8984 2.85342 9.87839 2.85342 7.38656C2.85342 4.89474 4.91906 2.87471 7.46717 2.87471Z" fill="#1185F7"/>
</svg>
