<svg xmlns="http://www.w3.org/2000/svg" xmlns:xlink="http://www.w3.org/1999/xlink" width="322" height="322" viewBox="0 0 322 322"><defs><linearGradient id="a" x1="0.334" y1="0.758" x2="0.84" y2="0.145" gradientUnits="objectBoundingBox"><stop offset="0" stop-color="#ffbe51"/><stop offset="0.413" stop-color="#de3a76"/><stop offset="0.712" stop-color="#b54cad"/><stop offset="1" stop-color="#825dc7"/></linearGradient></defs><g transform="translate(-638 -153)"><circle cx="161" cy="161" r="161" transform="translate(638 153)" fill="url(#a)"/><path d="M1082.493-8505.107s1.062,10.629,2.6,17.562c.658,2.966,1.906,7.179,3.231,11.384,1.507,4.786,4.356,11.216,4.356,11.216l5.68,12.156,94.045-92.3,87.757,87.594s11.522,11.723,24.747,0,96.881-97.282,96.881-97.282-5.2-32.861-18.642-49.614c-.712-.886-29.172,29.131-32.049,31.578-5.766,5.811-6.461,6.273-6.461,6.273-23.376,26.147-52.609,52.722-52.609,52.722l-88.943-88.161s-9.685-10.306-23.344,0S1082.493-8505.107,1082.493-8505.107Z" transform="translate(-443.142 8840.42)" fill="#fff"/></g></svg>