<svg width="135" height="131" viewBox="0 0 135 131" fill="none" xmlns="http://www.w3.org/2000/svg">
<path d="M62.8604 130.994C97.5772 130.994 125.721 126.842 125.721 121.72C125.721 116.598 97.5772 112.445 62.8604 112.445C28.1435 112.445 0 116.598 0 121.72C0 126.842 28.1435 130.994 62.8604 130.994Z" fill="#414141" fill-opacity="0.4"/>
<path d="M107.611 99.8111L107.474 99.6369L107.34 99.4617L107.207 99.2855L107.075 99.1083C107.001 97.4025 107.001 95.7118 107.075 94.0362C107.143 92.3723 107.284 90.7286 107.497 89.1052C107.703 87.4935 107.981 85.9069 108.329 84.3454C108.672 82.7955 109.081 81.2748 109.554 79.7833C109.608 79.6116 109.663 79.4398 109.719 79.2681C109.775 79.0963 109.832 78.927 109.89 78.7601C109.948 78.5911 110.006 78.4227 110.066 78.2551C110.126 78.0875 110.187 77.9205 110.249 77.7543C110.705 76.5088 111.208 75.2942 111.756 74.1105C112.304 72.9268 112.893 71.7833 113.522 70.6799C114.149 69.5766 114.817 68.5073 115.528 67.472C116.238 66.4367 116.983 65.445 117.761 64.4969L117.885 64.3465L118.008 64.1971L118.133 64.0487L118.258 63.9013L118.347 63.7983L118.438 63.6952L118.53 63.5922L118.623 63.4891L118.698 63.4479L118.772 63.4077L118.846 63.3675L118.919 63.3273L118.949 63.3108L118.978 63.2944L119.007 63.2779L119.035 63.2614L119.162 63.1923L119.29 63.1243L119.418 63.0573L119.545 62.9893L119.448 62.9409L119.206 62.8203L119.268 62.8481L119.329 62.877L119.391 62.9059L119.453 62.9357L119.477 62.946L119.5 62.9564L119.524 62.9666L119.548 62.978L119.568 62.9873L119.589 62.9965L119.61 63.0058L119.63 63.0151C120.513 63.4201 121.399 63.8302 122.272 64.262C123.146 64.6938 124.007 65.142 124.849 65.6253C125.684 66.105 126.493 66.6282 127.272 67.1927C128.05 67.7543 128.787 68.3714 129.476 69.0394C130.202 69.7496 130.853 70.5343 131.415 71.3807C131.974 72.2075 132.435 73.0967 132.789 74.0301C133.125 74.9226 133.325 75.8604 133.383 76.8124C133.439 77.728 133.311 78.6454 133.005 79.5103C132.964 79.6229 132.919 79.7342 132.871 79.8442C132.823 79.9541 132.772 80.0619 132.719 80.1677C132.664 80.2742 132.607 80.3773 132.547 80.4769C132.486 80.5765 132.423 80.6771 132.356 80.7788C132.328 80.82 132.3 80.8609 132.27 80.9015L132.183 81.022L132.092 81.1405L131.999 81.258C131.421 81.9851 130.686 82.5723 129.85 82.9758C129.008 83.378 128.094 83.6048 127.162 83.6426C126.183 83.6837 125.204 83.5418 124.277 83.2242C123.282 82.8848 122.358 82.3666 121.55 81.6949C121.271 81.4642 121.006 81.2164 120.758 80.953C120.511 80.6926 120.282 80.4173 120.069 80.1286C119.859 79.8414 119.667 79.5413 119.494 79.23C119.323 78.921 119.172 78.6012 119.043 78.2726C118.982 79.2932 119.14 80.3151 119.508 81.2693C119.895 82.2728 120.422 83.2167 121.072 84.0733C121.759 84.9853 122.521 85.8381 123.35 86.6228C124.185 87.4235 125.072 88.1737 125.948 88.8651C126.824 89.5566 127.731 90.2635 128.609 91.0003C129.486 91.7252 130.321 92.4997 131.11 93.32C131.875 94.1123 132.552 94.9855 133.128 95.9241C133.694 96.8504 134.104 97.864 134.34 98.9238C134.593 100.079 134.58 101.278 134.302 102.428C134.168 102.986 133.976 103.53 133.73 104.05C133.482 104.573 133.184 105.072 132.842 105.54L132.81 105.583L132.778 105.625L132.745 105.667L132.712 105.71C131.877 106.803 130.828 107.714 129.629 108.389C129.026 108.727 128.39 109.003 127.731 109.213C127.057 109.43 126.363 109.58 125.659 109.66C124.319 109.783 122.969 109.705 121.652 109.43C120.296 109.146 118.978 108.705 117.725 108.116C116.429 107.509 115.19 106.787 114.023 105.959C112.846 105.126 111.732 104.208 110.69 103.212C110.415 102.948 110.143 102.679 109.873 102.405C109.604 102.131 109.342 101.852 109.087 101.57C108.83 101.287 108.579 101 108.333 100.709C108.087 100.417 107.846 100.118 107.611 99.8111Z" fill="#06C487" fill-opacity="0.4"/>
<path d="M129.143 80.0472C128.315 79.6176 127.52 79.1293 126.762 78.5859C125.247 77.501 123.894 76.2069 122.743 74.7421C122.172 74.0154 121.656 73.2481 121.197 72.4462C120.814 71.7685 120.474 71.0675 120.179 70.3471C119.892 69.6445 119.651 68.924 119.457 68.1902C119.267 67.4734 119.125 66.7446 119.033 66.0087C118.942 65.2879 118.903 64.5617 118.914 63.8354C118.914 63.7941 118.914 63.7536 118.914 63.7138C118.914 63.6739 118.914 63.6334 118.914 63.5922C118.914 63.551 118.914 63.5104 118.914 63.4706L118.921 63.35L118.818 63.4335L118.714 63.518L118.611 63.6025L118.508 63.688L118.442 63.7426L118.376 63.7972L118.311 63.8529L118.246 63.9085L118.335 63.8055L118.428 63.6962L118.52 63.5932L118.613 63.4901L118.688 63.4489L118.762 63.4087L118.834 63.3686L118.907 63.3284L118.937 63.3119L118.967 63.2954L118.996 63.2789L119.024 63.2624L119.151 63.1934L119.279 63.1254L119.407 63.0584L119.535 62.9904L119.432 62.9409L119.19 62.8203L119.251 62.8481L119.313 62.877L119.375 62.9059L119.436 62.9357L119.46 62.946L119.483 62.9564L119.507 62.9666L119.53 62.978V63.0161V63.0522V63.0883V63.1243C119.44 64.3479 119.504 65.5779 119.719 66.7857C119.941 68.0289 120.305 69.2425 120.803 70.4027C121.319 71.6024 121.963 72.7426 122.724 73.8034C123.511 74.9021 124.413 75.9139 125.414 76.8217C126.421 77.724 127.52 78.5184 128.693 79.1919C129.272 79.5238 129.869 79.8248 130.48 80.0935C131.085 80.3595 131.704 80.5923 132.335 80.7912C132.307 80.8324 132.279 80.8733 132.249 80.9138L132.161 81.0344L132.071 81.1529L131.978 81.2704C131.735 81.19 131.494 81.1041 131.257 81.0127C131.019 80.9214 130.779 80.8255 130.535 80.7252C130.297 80.6242 130.06 80.5184 129.825 80.4078C129.59 80.2972 129.363 80.177 129.143 80.0472Z" fill="white"/>
<path d="M112.759 89.1854C112.488 88.7808 112.232 88.3686 111.992 87.9488C111.751 87.5291 111.526 87.1035 111.317 86.6721C111.11 86.2406 110.917 85.8037 110.737 85.3612C110.557 84.9188 110.397 84.4723 110.256 84.0216C110.183 83.7832 110.114 83.5428 110.05 83.3002C109.986 83.0577 109.93 82.8173 109.881 82.5789C109.831 82.3378 109.786 82.0973 109.747 81.8575C109.708 81.6178 109.674 81.3774 109.644 81.1362C109.63 81.0236 109.618 80.9105 109.607 80.7972C109.596 80.6838 109.586 80.5708 109.578 80.4581C109.57 80.3448 109.563 80.2318 109.556 80.1191C109.55 80.0065 109.545 79.8938 109.542 79.7811C109.596 79.6094 109.651 79.4376 109.707 79.2659C109.763 79.0941 109.82 78.9241 109.878 78.7558C109.936 78.5868 109.994 78.4184 110.054 78.2508C110.114 78.0832 110.175 77.9163 110.237 77.75C110.223 77.8874 110.211 78.0272 110.202 78.1694C110.192 78.3116 110.184 78.4521 110.179 78.5909C110.173 78.7317 110.17 78.8729 110.168 79.0144C110.166 79.1559 110.166 79.2978 110.168 79.44C110.168 79.5177 110.168 79.5952 110.168 79.6729C110.168 79.7505 110.17 79.8282 110.174 79.9058C110.174 79.9834 110.177 80.0611 110.184 80.1387C110.191 80.2163 110.195 80.294 110.197 80.3716C110.259 81.2408 110.397 82.1029 110.61 82.9478C110.824 83.8037 111.104 84.6419 111.446 85.455C111.795 86.2837 112.198 87.0888 112.651 87.8653C113.112 88.6553 113.616 89.4194 114.161 90.1541C114.747 90.9476 115.366 91.7197 116.016 92.4706C116.666 93.2215 117.344 93.9525 118.05 94.6635C118.753 95.3732 119.478 96.0602 120.223 96.7245C120.969 97.3889 121.726 98.0316 122.495 98.6526C123.283 99.2888 124.087 99.9009 124.908 100.489C125.728 101.077 126.562 101.639 127.409 102.175C128.255 102.711 129.114 103.221 129.985 103.705C130.856 104.19 131.738 104.646 132.631 105.074C132.672 105.094 132.709 105.121 132.741 105.154C132.771 105.187 132.796 105.224 132.814 105.265C132.831 105.306 132.842 105.349 132.845 105.393C132.847 105.437 132.841 105.482 132.827 105.524C132.823 105.542 132.816 105.56 132.809 105.577C132.801 105.593 132.791 105.608 132.78 105.623C132.758 105.652 132.73 105.676 132.698 105.693C132.682 105.701 132.664 105.706 132.646 105.709C132.628 105.712 132.609 105.712 132.591 105.709C132.572 105.708 132.554 105.705 132.536 105.699C132.517 105.694 132.499 105.686 132.482 105.676L132.151 105.518L131.821 105.357L131.493 105.193L131.165 105.026C130.256 104.559 129.359 104.064 128.474 103.541C127.589 103.019 126.718 102.469 125.86 101.892C125.002 101.315 124.16 100.712 123.333 100.083C122.507 99.4537 121.697 98.801 120.905 98.125C120.141 97.4706 119.385 96.7946 118.649 96.0959C117.912 95.3973 117.192 94.6759 116.501 93.9319C115.81 93.1879 115.145 92.4202 114.515 91.6298C113.886 90.8394 113.307 90.0212 112.759 89.1854Z" fill="white"/>
<path d="M129.886 24.2361L129.235 24.3206L133.6 7.93568C133.922 6.84151 133.974 5.68574 133.752 4.56697C133.56 3.65396 133.084 2.82476 132.394 2.19684C131.671 1.56799 130.785 1.15644 129.837 1.0097C128.684 0.831199 127.506 0.884096 126.373 1.16531L96.7038 7.92023C95.6684 8.17137 94.6774 8.57897 93.7649 9.12899C92.7725 9.71934 91.8495 10.4193 91.0134 11.2158C90.153 12.0277 89.3807 12.9282 88.7093 13.9023C88.0535 14.8452 87.5189 15.8669 87.1182 16.9433L56.0754 102.326C55.5594 103.73 55.2243 105.194 55.0779 106.683C54.9422 108.005 55.0065 109.339 55.2686 110.641C55.4871 111.773 55.9438 112.845 56.6082 113.787C57.2176 114.644 58.0761 115.292 59.067 115.642L90.4147 126.434C91.8078 126.908 93.3033 126.997 94.7428 126.691C96.281 126.356 97.7278 125.69 98.9823 124.739C100.391 123.68 101.603 122.382 102.561 120.903C103.623 119.278 104.416 117.493 104.911 115.617L125.927 36.7402L126.586 36.6876L129.886 24.2361Z" fill="#2F2E41"/>
<path d="M127.619 23.3298L126.968 23.4143L131.333 7.02943C131.654 5.93526 131.707 4.77949 131.485 3.66072C131.292 2.74774 130.817 1.91856 130.127 1.29059C129.404 0.661736 128.517 0.250186 127.57 0.103449C126.417 -0.0750508 125.239 -0.022154 124.106 0.259055L94.4368 7.01398C93.4013 7.26512 92.4103 7.67272 91.4978 8.22274C90.5054 8.81307 89.5824 9.51306 88.7463 10.3095C87.8859 11.1215 87.1136 12.022 86.4422 12.996C85.7864 13.9389 85.2518 14.9606 84.8511 16.037L53.8083 101.42C53.2923 102.824 52.9572 104.288 52.8108 105.777C52.6752 107.098 52.7394 108.433 53.0015 109.735C53.22 110.867 53.6766 111.939 54.3411 112.881C54.9504 113.738 55.809 114.385 56.7999 114.736L88.1476 125.527C89.5407 126.002 91.0362 126.091 92.4757 125.785C94.0139 125.45 95.4607 124.783 96.7152 123.832C98.124 122.774 99.3354 121.475 100.294 119.997C101.356 118.372 102.149 116.587 102.644 114.71L123.66 35.8339L124.319 35.7813L127.619 23.3298Z" fill="#3F3D56"/>
<path d="M123.841 2.39067L119.48 3.34594C119.527 3.72321 119.49 4.10633 119.37 4.46712C119.234 4.88933 119.036 5.28931 118.784 5.65426C118.217 6.4829 117.461 7.16407 116.577 7.64106C116.471 7.69739 116.366 7.74926 116.261 7.79666C116.156 7.84406 116.05 7.88735 115.945 7.92651C115.841 7.96567 115.738 8.00001 115.636 8.02955C115.534 8.05909 115.431 8.08417 115.327 8.10478L98.2754 11.558C97.959 11.6313 97.6295 11.6274 97.315 11.5467C97.0617 11.4786 96.8383 11.3281 96.6801 11.119C96.5207 10.8942 96.4308 10.6277 96.4215 10.3523C96.4087 10.0014 96.4643 9.65139 96.5854 9.32179C96.6156 9.23248 96.6499 9.14283 96.6884 9.05283C96.7268 8.96284 96.7691 8.87251 96.8152 8.78183C96.8605 8.69114 96.91 8.6008 96.9636 8.51081C97.0171 8.42081 97.0738 8.33115 97.1336 8.24184L93.905 8.94875C93.1273 9.13104 92.3824 9.43242 91.6967 9.8422C90.9475 10.2833 90.2509 10.8081 89.6202 11.4065C88.9701 12.0181 88.3869 12.6972 87.8807 13.4324C87.3871 14.1427 86.9857 14.9128 86.6864 15.7243L55.7014 101.849C55.3161 102.907 55.0688 104.011 54.9656 105.132C54.87 106.122 54.9263 107.121 55.1325 108.094C55.3049 108.935 55.6563 109.729 56.163 110.422C56.6277 111.051 57.2756 111.521 58.0179 111.768L89.5965 122.027C90.6383 122.361 91.7504 122.411 92.8178 122.172C93.9548 121.911 95.0227 121.41 95.9495 120.702C96.9864 119.917 97.879 118.958 98.5876 117.867C99.3718 116.67 99.9604 115.355 100.331 113.972L129.185 7.50194C129.427 6.68918 129.472 5.83038 129.316 4.9968C129.18 4.31382 128.835 3.69021 128.328 3.21301C127.796 2.73576 127.14 2.41947 126.436 2.30102C125.574 2.15589 124.691 2.18637 123.841 2.39067Z" fill="#2196F3"/>
<rect x="15" y="41" width="63.9954" height="18.2844" rx="1" fill="#C4C4C4"/>
<path d="M30.8301 47.8906V52.7246C30.8268 53.3952 30.6152 53.9437 30.1953 54.3701C29.7786 54.7965 29.2122 55.0358 28.4961 55.0879L28.2471 55.0977C27.4691 55.0977 26.849 54.8877 26.3867 54.4678C25.9245 54.0479 25.6901 53.4701 25.6836 52.7344V47.8906H26.6113V52.7051C26.6113 53.2194 26.7529 53.6198 27.0361 53.9062C27.3193 54.1895 27.723 54.3311 28.2471 54.3311C28.7777 54.3311 29.1829 54.1895 29.4629 53.9062C29.7461 53.623 29.8877 53.2243 29.8877 52.71V47.8906H30.8301ZM34.0225 49.7168L34.0518 50.3809C34.4554 49.873 34.9827 49.6191 35.6338 49.6191C36.7503 49.6191 37.3135 50.249 37.3232 51.5088V55H36.4199V51.5039C36.4167 51.123 36.3288 50.8415 36.1562 50.6592C35.987 50.4769 35.7217 50.3857 35.3604 50.3857C35.0674 50.3857 34.8102 50.4639 34.5889 50.6201C34.3675 50.7764 34.195 50.9814 34.0713 51.2354V55H33.168V49.7168H34.0225ZM44.1582 52.417C44.1582 53.2243 43.9727 53.8737 43.6016 54.3652C43.2305 54.8535 42.7324 55.0977 42.1074 55.0977C41.4401 55.0977 40.9242 54.8617 40.5596 54.3896L40.5156 55H39.6855V47.5H40.5889V50.2979C40.9535 49.8454 41.4564 49.6191 42.0977 49.6191C42.7389 49.6191 43.2419 49.8617 43.6064 50.3467C43.9743 50.8317 44.1582 51.4958 44.1582 52.3389V52.417ZM43.2549 52.3145C43.2549 51.6992 43.1361 51.224 42.8984 50.8887C42.6608 50.5534 42.319 50.3857 41.873 50.3857C41.2773 50.3857 40.8493 50.6624 40.5889 51.2158V53.501C40.8656 54.0544 41.2969 54.3311 41.8828 54.3311C42.3158 54.3311 42.6527 54.1634 42.8936 53.8281C43.1344 53.4928 43.2549 52.9883 43.2549 52.3145ZM47.2822 55H46.3789V47.5H47.2822V55ZM49.4932 52.3096C49.4932 51.792 49.5941 51.3265 49.7959 50.9131C50.001 50.4997 50.2842 50.1807 50.6455 49.9561C51.0101 49.7314 51.4251 49.6191 51.8906 49.6191C52.61 49.6191 53.1911 49.8682 53.6338 50.3662C54.0798 50.8643 54.3027 51.5267 54.3027 52.3535V52.417C54.3027 52.9313 54.2035 53.3936 54.0049 53.8037C53.8096 54.2106 53.528 54.528 53.1602 54.7559C52.7956 54.9837 52.3757 55.0977 51.9004 55.0977C51.1842 55.0977 50.6032 54.8486 50.1572 54.3506C49.7145 53.8525 49.4932 53.1934 49.4932 52.373V52.3096ZM50.4014 52.417C50.4014 53.0029 50.5365 53.4733 50.8066 53.8281C51.0801 54.1829 51.4447 54.3604 51.9004 54.3604C52.3594 54.3604 52.724 54.1813 52.9941 53.8232C53.2643 53.4619 53.3994 52.9574 53.3994 52.3096C53.3994 51.7301 53.2611 51.2614 52.9844 50.9033C52.7109 50.542 52.3464 50.3613 51.8906 50.3613C51.4447 50.3613 51.085 50.5387 50.8115 50.8936C50.5381 51.2484 50.4014 51.7562 50.4014 52.417ZM58.5547 54.3604C58.877 54.3604 59.1585 54.2627 59.3994 54.0674C59.6403 53.8721 59.7738 53.6279 59.7998 53.335H60.6543C60.638 53.6377 60.5339 53.9258 60.3418 54.1992C60.1497 54.4727 59.8926 54.6908 59.5703 54.8535C59.2513 55.0163 58.9128 55.0977 58.5547 55.0977C57.8353 55.0977 57.2624 54.8584 56.8359 54.3799C56.4128 53.8981 56.2012 53.2406 56.2012 52.4072V52.2559C56.2012 51.7415 56.2956 51.2842 56.4844 50.8838C56.6732 50.4834 56.9434 50.1725 57.2949 49.9512C57.6497 49.7298 58.068 49.6191 58.5498 49.6191C59.1423 49.6191 59.6338 49.7965 60.0244 50.1514C60.4183 50.5062 60.6283 50.9668 60.6543 51.5332H59.7998C59.7738 51.1914 59.6436 50.9115 59.4092 50.6934C59.1781 50.472 58.8916 50.3613 58.5498 50.3613C58.0908 50.3613 57.7344 50.5273 57.4805 50.8594C57.2298 51.1882 57.1045 51.665 57.1045 52.29V52.4609C57.1045 53.0697 57.2298 53.5384 57.4805 53.8672C57.7311 54.196 58.0892 54.3604 58.5547 54.3604ZM64.1445 52.5537L63.5781 53.1445V55H62.6748V47.5H63.5781V52.0361L64.0615 51.4551L65.707 49.7168H66.8057L64.75 51.9238L67.0449 55H65.9854L64.1445 52.5537Z" fill="black"/>
<rect x="68.5347" y="76" width="36.8557" height="14.3388" rx="1" transform="rotate(18.4363 68.5347 76)" fill="#E93651"/>
<path d="M74.9689 86.6288C74.7368 87.402 74.3723 87.9706 73.8755 88.3346C73.3797 88.6956 72.8325 88.7862 72.2339 88.6064C71.5947 88.4145 71.1684 88.0401 70.955 87.4832L70.7374 88.0551L69.9424 87.8164L72.0993 80.6332L72.9645 80.893L72.1598 83.5727C72.6391 83.2442 73.1859 83.1721 73.8001 83.3565C74.4143 83.541 74.8262 83.9179 75.0359 84.4873C75.2487 85.0576 75.2339 85.7465 74.9914 86.554L74.9689 86.6288ZM74.1333 86.2708C74.3102 85.6815 74.3331 85.1922 74.2019 84.8027C74.0707 84.4133 73.7916 84.1544 73.3645 84.0262C72.7939 83.8548 72.3044 83.9967 71.8958 84.4519L71.2386 86.6405C71.3445 87.25 71.678 87.6391 72.2392 87.8076C72.6539 87.9321 73.0247 87.8684 73.3519 87.6166C73.679 87.3648 73.9395 86.9162 74.1333 86.2708ZM77.2181 90.0011L76.353 89.7413L78.5099 82.5582L79.3751 82.818L77.2181 90.0011ZM80.1094 88.0602C80.2583 87.5645 80.4888 87.1477 80.801 86.8098C81.1163 86.4728 81.4793 86.2487 81.8899 86.1375C82.3037 86.0272 82.7335 86.039 83.1793 86.1729C83.8683 86.3798 84.3532 86.7854 84.634 87.3897C84.9179 87.995 84.9409 88.6936 84.7031 89.4855L84.6849 89.5462C84.537 90.0388 84.309 90.453 84.0008 90.7887C83.6967 91.1223 83.3358 91.3453 82.918 91.4577C82.5032 91.5711 82.0683 91.5595 81.6131 91.4228C80.9272 91.2168 80.4423 90.8112 80.1584 90.2059C79.8777 89.6016 79.8552 88.9066 80.0911 88.121L80.1094 88.0602ZM80.9483 88.4243C80.7798 88.9854 80.7739 89.4748 80.9307 89.8923C81.0905 90.3108 81.3887 90.5856 81.8251 90.7166C82.2647 90.8486 82.6654 90.782 83.0272 90.5168C83.3898 90.2484 83.6643 89.804 83.8506 89.1836C84.0173 88.6286 84.0196 88.1399 83.8575 87.7174C83.6996 87.2927 83.4024 87.0148 82.9659 86.8837C82.5388 86.7555 82.1432 86.8219 81.7793 87.0831C81.4154 87.3443 81.1384 87.7914 80.9483 88.4243ZM88.1983 92.6303C88.507 92.723 88.8047 92.7105 89.0916 92.5927C89.3785 92.4749 89.5765 92.2794 89.6857 92.0063L90.5041 92.2521C90.4015 92.5373 90.2189 92.7833 89.9563 92.99C89.6937 93.1966 89.3847 93.3315 89.0292 93.3947C88.6769 93.4589 88.3292 93.4395 87.9863 93.3365C87.2973 93.1296 86.8174 92.7357 86.5466 92.1547C86.2798 91.5716 86.2663 90.881 86.5059 90.0829L86.5495 89.9379C86.6974 89.4453 86.9193 89.0344 87.2153 88.7052C87.5113 88.3761 87.8594 88.156 88.2598 88.0451C88.6633 87.9352 89.0958 87.9495 89.5572 88.088C90.1246 88.2584 90.5443 88.5697 90.8164 89.0218C91.0916 89.4749 91.1602 89.9765 91.0223 90.5264L90.2039 90.2807C90.2773 89.9459 90.2331 89.6403 90.0713 89.364C89.9136 89.0855 89.6711 88.8971 89.3437 88.7988C88.9041 88.6668 88.515 88.7233 88.1763 88.9683C87.8417 89.2111 87.5845 89.6318 87.4048 90.2304L87.3556 90.3941C87.1806 90.9771 87.1658 91.4621 87.3113 91.8491C87.4568 92.236 87.7525 92.4965 88.1983 92.6303ZM94.0716 92.5076L93.3592 92.9106L92.8256 94.6876L91.9604 94.4279L94.1174 87.2447L94.9825 87.5045L93.678 91.849L94.308 91.4315L96.3839 90.2399L97.4362 90.5558L94.8326 92.0784L96.1459 95.6847L95.1311 95.3799L94.0716 92.5076Z" fill="white"/>
<path d="M100.01 48.2069C99.949 47.6158 99.7731 47.0419 99.4924 46.5174C99.2132 45.9922 98.8348 45.5256 98.3781 45.1436C98.3741 45.1398 98.3698 45.1372 98.3658 45.1334C99.2589 44.8305 99.9975 44.1178 100.294 43.1493C100.786 41.5448 99.8802 39.8455 98.2713 39.3527C96.6623 38.8598 94.9605 39.7605 94.4691 41.3649C94.1724 42.3335 94.3851 43.3376 94.9549 44.0899C94.9495 44.0908 94.9445 44.0905 94.939 44.0914C94.3451 44.1516 93.7758 44.3244 93.2465 44.6055C92.7204 44.8832 92.2534 45.26 91.8712 45.715C91.4963 46.1603 91.2105 46.6733 91.0293 47.2263C91.0252 47.2387 91.0236 47.2518 91.0246 47.2648C91.0256 47.2779 91.0292 47.2906 91.0352 47.3022C91.0412 47.3138 91.0495 47.3242 91.0596 47.3326C91.0697 47.3409 91.0813 47.3472 91.0938 47.3511L91.7985 47.5669C91.8502 47.5828 91.9038 47.5544 91.9204 47.5044C92.2209 46.6074 92.8443 45.8722 93.6845 45.4276C94.5538 44.9675 95.55 44.873 96.4919 45.1615C97.4338 45.45 98.2062 46.0863 98.6687 46.9543C99.1157 47.7933 99.2204 48.7515 98.9669 49.6628C98.9523 49.7147 98.9812 49.7671 99.0329 49.783L99.7375 49.9988C99.7501 50.0027 99.7632 50.004 99.7763 50.0027C99.7893 50.0013 99.802 49.9974 99.8135 49.9912C99.825 49.9849 99.8351 49.9764 99.8432 49.9662C99.8514 49.9559 99.8574 49.9442 99.8609 49.9316C100.021 49.3682 100.071 48.788 100.01 48.2069ZM96.7646 44.2715C96.2255 44.1063 95.7824 43.7413 95.5173 43.2437C95.2522 42.7462 95.197 42.1759 95.3616 41.6383C95.5263 41.1008 95.8915 40.6592 96.3898 40.3955C96.888 40.1318 97.4596 40.0776 97.9986 40.2427C98.5377 40.4078 98.9808 40.7729 99.2459 41.2704C99.511 41.768 99.5663 42.3383 99.4016 42.8759C99.2369 43.4134 98.8717 43.8549 98.3735 44.1187C97.8752 44.3824 97.3036 44.4366 96.7646 44.2715Z" fill="white"/>
<path d="M96 55C101.523 55 106 50.5228 106 45C106 39.4772 101.523 35 96 35C90.4772 35 86 39.4772 86 45C86 50.5228 90.4772 55 96 55Z" stroke="#E93651" stroke-width="2"/>
<path d="M89 52L103 38" stroke="#E93651" stroke-width="2"/>
<path d="M42.5 28.5C42.5 30.981 44.519 33 47 33C49.481 33 51.5 30.981 51.5 28.5C51.5 26.019 49.481 24 47 24C44.519 24 42.5 26.019 42.5 28.5ZM55 43H56V42C56 38.141 52.859 35 49 35H45C41.14 35 38 38.141 38 42V43H55Z" fill="#06C487"/>
</svg>
